<?xml version="1.0" encoding="UTF-8"?><svg id="Capa_2" xmlns="http://www.w3.org/2000/svg" viewBox="0 0 353.67 60.67"><defs><style>.cls-1{fill:none;stroke:#424242;stroke-miterlimit:10;stroke-width:2px;}.cls-2{fill:#515143;}.cls-2,.cls-3,.cls-4,.cls-5,.cls-6{stroke-width:0px;}.cls-3{fill:#6d6d6d;}.cls-4{fill:#dd8e00;}.cls-5{fill:#fff;}.cls-6{fill:#e89600;}</style></defs><g id="Textos"><path class="cls-3" d="m0,18.2h2.34v8.36h10.53v-8.36h2.34v19.73h-2.34v-9.2H2.34v9.2H0v-19.73Z"/><path class="cls-3" d="m31.38,35.56c-.78,1-1.63,1.71-2.56,2.1-.93.4-2.01.6-3.23.6-1.02,0-1.94-.18-2.76-.54-.82-.36-1.51-.85-2.08-1.46-.57-.61-1-1.34-1.31-2.17s-.46-1.73-.46-2.68c0-1,.17-1.93.5-2.77.33-.84.8-1.57,1.39-2.17.59-.6,1.3-1.07,2.12-1.41.82-.33,1.71-.5,2.68-.5.91,0,1.75.15,2.51.46s1.42.75,1.96,1.34.97,1.3,1.27,2.15c.3.85.45,1.81.45,2.88v.7h-10.53c.04.56.17,1.09.4,1.6.23.51.53.96.91,1.34.37.38.81.68,1.31.91.5.22,1.05.33,1.64.33.95,0,1.75-.17,2.4-.5.65-.33,1.24-.83,1.76-1.48l1.64,1.28Zm-1.87-5.32c-.04-1.12-.4-2.01-1.09-2.68s-1.63-1-2.84-1-2.18.33-2.93,1-1.19,1.56-1.34,2.68h8.19Z"/><path class="cls-3" d="m44.5,28.15c-.46-.56-.97-.96-1.5-1.21s-1.13-.38-1.78-.38c-.72,0-1.37.12-1.92.38-.56.25-1.02.6-1.38,1.04-.36.45-.64.96-.82,1.55s-.28,1.21-.28,1.88.11,1.3.32,1.88c.21.58.51,1.1.89,1.55.38.45.84.79,1.38,1.05.54.25,1.14.38,1.81.38,1.43,0,2.54-.54,3.32-1.62l1.62,1.53c-.63.72-1.38,1.25-2.23,1.59-.86.33-1.76.5-2.7.5-1,0-1.92-.17-2.76-.5-.84-.33-1.55-.81-2.13-1.42-.59-.61-1.04-1.34-1.37-2.17-.33-.84-.49-1.76-.49-2.76s.16-1.89.49-2.73.78-1.56,1.38-2.17c.59-.61,1.3-1.09,2.13-1.44.83-.34,1.74-.52,2.75-.52s1.88.17,2.74.5c.86.33,1.62.85,2.27,1.56l-1.73,1.53Z"/><path class="cls-3" d="m48.66,16.86h2.17v9.84h.06c.15-.26.35-.52.61-.77.26-.25.57-.48.93-.68.36-.2.77-.37,1.21-.5s.92-.2,1.42-.2c.85,0,1.59.13,2.22.39.62.26,1.14.62,1.55,1.09.41.46.71,1.03.91,1.69.2.66.29,1.38.29,2.16v8.05h-2.17v-7.83c0-1.1-.24-1.96-.72-2.59-.48-.63-1.24-.95-2.26-.95-.71,0-1.31.12-1.82.36-.51.24-.93.58-1.25,1.03-.33.45-.57.98-.72,1.59-.16.61-.24,1.29-.24,2.04v6.35h-2.17v-21.07Z"/><path class="cls-3" d="m63.4,31.41c0-1.02.18-1.95.53-2.79s.84-1.56,1.45-2.16c.61-.6,1.35-1.07,2.2-1.41s1.78-.5,2.79-.5,1.93.17,2.79.5c.86.33,1.59.8,2.2,1.41.61.6,1.1,1.32,1.45,2.16s.53,1.76.53,2.79-.18,1.95-.53,2.79-.84,1.56-1.45,2.16-1.35,1.07-2.2,1.41c-.85.33-1.78.5-2.79.5s-1.93-.17-2.79-.5c-.85-.33-1.59-.8-2.2-1.41-.61-.6-1.1-1.32-1.45-2.16s-.53-1.76-.53-2.79Zm2.34,0c0,.69.11,1.32.32,1.91.21.58.53,1.1.93,1.53s.9.78,1.46,1.03c.57.25,1.2.38,1.91.38s1.34-.13,1.91-.38c.57-.25,1.05-.59,1.46-1.03.41-.44.72-.95.93-1.53.21-.58.32-1.22.32-1.91s-.11-1.32-.32-1.91c-.21-.59-.53-1.1-.93-1.53-.41-.44-.9-.78-1.46-1.03-.57-.25-1.2-.38-1.91-.38s-1.34.12-1.91.38-1.05.59-1.46,1.03-.72.95-.93,1.53c-.21.58-.32,1.22-.32,1.91Z"/><path class="cls-3" d="m88.34,24.89h2.17v1.89h.06c.59-.71,1.29-1.25,2.08-1.64.79-.39,1.66-.59,2.61-.59,1.02,0,1.96.17,2.8.52.85.34,1.56.82,2.16,1.44.59.61,1.06,1.34,1.39,2.17.33.84.5,1.75.5,2.73s-.17,1.9-.5,2.73c-.33.84-.79,1.56-1.38,2.17s-1.28,1.09-2.08,1.44c-.8.34-1.65.51-2.56.51-1.17,0-2.2-.25-3.08-.77-.88-.51-1.53-1.14-1.94-1.88h-.06v8.67h-2.17v-19.4Zm2.17,6.52c0,.69.11,1.32.32,1.91s.52,1.1.93,1.53.9.78,1.46,1.03c.57.25,1.2.38,1.91.38s1.34-.13,1.91-.38c.57-.25,1.05-.59,1.46-1.03.41-.44.72-.95.93-1.53s.32-1.22.32-1.91-.11-1.32-.32-1.91c-.21-.59-.53-1.1-.93-1.53-.41-.44-.9-.78-1.46-1.03-.57-.25-1.2-.38-1.91-.38s-1.34.12-1.91.38c-.57.25-1.05.59-1.46,1.03s-.72.95-.93,1.53c-.21.58-.32,1.22-.32,1.91Z"/><path class="cls-3" d="m104.73,31.41c0-1.02.18-1.95.53-2.79.35-.84.84-1.56,1.45-2.16.61-.6,1.35-1.07,2.2-1.41.86-.33,1.78-.5,2.79-.5s1.93.17,2.79.5,1.59.8,2.2,1.41c.61.6,1.1,1.32,1.45,2.16.35.84.53,1.76.53,2.79s-.18,1.95-.53,2.79c-.35.84-.84,1.56-1.45,2.16s-1.35,1.07-2.2,1.41c-.85.33-1.78.5-2.79.5s-1.93-.17-2.79-.5c-.85-.33-1.59-.8-2.2-1.41s-1.1-1.32-1.45-2.16c-.35-.84-.53-1.76-.53-2.79Zm2.34,0c0,.69.11,1.32.32,1.91.21.58.52,1.1.93,1.53.41.44.9.78,1.46,1.03.57.25,1.2.38,1.91.38s1.34-.13,1.91-.38c.57-.25,1.05-.59,1.46-1.03.41-.44.72-.95.93-1.53.21-.58.32-1.22.32-1.91s-.11-1.32-.32-1.91c-.21-.59-.53-1.1-.93-1.53-.41-.44-.9-.78-1.46-1.03s-1.2-.38-1.91-.38-1.34.12-1.91.38c-.57.25-1.05.59-1.46,1.03-.41.44-.72.95-.93,1.53-.21.58-.32,1.22-.32,1.91Z"/><path class="cls-3" d="m122.03,27.98c0-.59-.02-1.15-.06-1.67-.04-.52-.06-.99-.06-1.42h2.06c0,.35,0,.71.03,1.06.02.35.03.72.03,1.09h.06c.15-.32.36-.62.63-.92.27-.3.59-.56.96-.79.37-.23.79-.42,1.25-.56.46-.14.96-.21,1.5-.21.15,0,.3,0,.45.03.15.02.3.06.45.11l-.14,2.2c-.37-.11-.76-.17-1.17-.17-1.34,0-2.31.43-2.91,1.3-.6.86-.91,2.05-.91,3.55v6.35h-2.17v-9.95Z"/><path class="cls-3" d="m133.65,24.55c.46,0,.86.16,1.18.49.32.33.49.72.49,1.18s-.17.86-.52,1.18c-.34.33-.73.49-1.16.49s-.81-.16-1.16-.49c-.34-.32-.52-.72-.52-1.18s.16-.86.49-1.18.72-.49,1.18-.49Zm0,10.2c.46,0,.86.16,1.18.49.32.33.49.72.49,1.18s-.17.86-.52,1.18c-.34.32-.73.49-1.16.49s-.81-.16-1.16-.49c-.34-.33-.52-.72-.52-1.18s.16-.86.49-1.18c.33-.32.72-.49,1.18-.49Z"/><path class="cls-5" d="m147.73,18.2h2.34v19.73h-2.34v-19.73Z"/><path class="cls-5" d="m154.61,18.2h7.58c.65,0,1.34.07,2.06.22.72.15,1.44.39,2.16.71.71.33,1.4.75,2.06,1.27.66.52,1.24,1.15,1.74,1.88.5.73.9,1.58,1.2,2.54.3.96.45,2.04.45,3.25s-.15,2.29-.45,3.25-.7,1.8-1.2,2.54c-.5.73-1.08,1.36-1.74,1.88-.66.52-1.35.94-2.06,1.27-.72.33-1.44.56-2.16.71s-1.41.22-2.06.22h-7.58v-19.73Zm2.34,17.56h4.46c1.13,0,2.18-.15,3.15-.45.97-.3,1.8-.76,2.51-1.38.71-.62,1.26-1.42,1.67-2.38.41-.97.61-2.13.61-3.48s-.21-2.52-.61-3.48-.97-1.76-1.67-2.38c-.71-.62-1.54-1.08-2.51-1.38-.97-.3-2.02-.45-3.15-.45h-4.46v15.38Z"/><path class="cls-4" d="m177.04,34.75c.46,0,.86.16,1.19.49.32.33.49.72.49,1.18s-.17.86-.52,1.18c-.34.32-.73.49-1.16.49s-.81-.16-1.16-.49c-.34-.33-.52-.72-.52-1.18s.16-.86.49-1.18c.32-.32.72-.49,1.18-.49Z"/><path class="cls-5" d="m189.78,18.2h2.2l8.39,19.73h-2.73l-2.01-4.85h-9.87l-2.03,4.85h-2.65l8.7-19.73Zm1.06,3.01h-.06l-4.1,9.7h8.05l-3.9-9.7Z"/><path class="cls-5" d="m210.54,16.86h2.17v21.07h-2.17v-21.07Z"/><path class="cls-5" d="m216.75,19.79c0-.43.15-.8.46-1.12.31-.32.68-.47,1.13-.47s.82.16,1.13.47c.31.32.46.69.46,1.12,0,.46-.15.84-.45,1.14-.3.3-.68.45-1.14.45s-.85-.15-1.14-.45-.45-.68-.45-1.14Zm.5,5.1h2.17v13.04h-2.17v-13.04Z"/><path class="cls-5" d="m223.64,16.86h2.17v9.92h.06c.59-.71,1.29-1.25,2.08-1.64.79-.39,1.66-.59,2.61-.59,1.02,0,1.96.17,2.8.52.84.34,1.56.82,2.16,1.44.6.61,1.06,1.34,1.39,2.17s.5,1.75.5,2.73-.17,1.9-.5,2.73-.79,1.56-1.38,2.17c-.58.61-1.28,1.09-2.07,1.44-.8.34-1.65.51-2.56.51-1.17,0-2.2-.25-3.08-.77-.88-.51-1.53-1.14-1.94-1.88h-.06v2.31h-2.17v-21.07Zm2.17,14.55c0,.69.11,1.32.32,1.91s.52,1.1.93,1.53.9.78,1.46,1.03c.57.25,1.2.38,1.91.38s1.34-.13,1.91-.38c.57-.25,1.05-.59,1.46-1.03s.72-.95.93-1.53.32-1.22.32-1.91-.11-1.32-.32-1.91c-.21-.59-.53-1.1-.93-1.53s-.9-.78-1.46-1.03-1.2-.38-1.91-.38-1.34.12-1.91.38c-.57.25-1.05.59-1.46,1.03s-.72.95-.93,1.53c-.21.58-.32,1.22-.32,1.91Z"/><path class="cls-5" d="m240.78,27.98c0-.59-.02-1.15-.06-1.67-.04-.52-.06-.99-.06-1.42h2.06c0,.35,0,.71.03,1.06.02.35.03.72.03,1.09h.06c.15-.32.36-.62.63-.92.27-.3.59-.56.96-.79.37-.23.79-.42,1.25-.56.46-.14.97-.21,1.5-.21.15,0,.3,0,.45.03.15.02.3.06.45.11l-.14,2.2c-.37-.11-.76-.17-1.17-.17-1.34,0-2.31.43-2.91,1.3-.6.86-.91,2.05-.91,3.55v6.35h-2.17v-9.95Z"/><path class="cls-5" d="m261.73,35.56c-.78,1-1.63,1.71-2.56,2.1-.93.4-2.01.6-3.23.6-1.02,0-1.94-.18-2.76-.54s-1.51-.85-2.08-1.46-1-1.34-1.31-2.17-.46-1.73-.46-2.68c0-1,.17-1.93.5-2.77.33-.84.8-1.57,1.39-2.17.59-.6,1.3-1.07,2.12-1.41.82-.33,1.71-.5,2.67-.5.91,0,1.75.15,2.51.46s1.42.75,1.96,1.34.97,1.3,1.27,2.15c.3.85.45,1.81.45,2.88v.7h-10.53c.04.56.17,1.09.4,1.6.23.51.53.96.91,1.34.37.38.81.68,1.31.91.5.22,1.05.33,1.64.33.95,0,1.75-.17,2.4-.5.65-.33,1.24-.83,1.75-1.48l1.64,1.28Zm-1.87-5.32c-.04-1.12-.4-2.01-1.09-2.68s-1.63-1-2.84-1-2.18.33-2.93,1-1.19,1.56-1.34,2.68h8.19Z"/><line class="cls-1" x1="284.15" y1=".18" x2="284.15" y2="60.67"/><path class="cls-2" d="m328.93,58.61c-.62,0-1.25-.08-1.87-.25-1.84-.5-3.38-1.68-4.33-3.33-.95-1.65-1.2-3.58-.71-5.42.2-.75.52-1.45.93-2.08-.75.04-1.52-.04-2.27-.24-1.84-.5-3.38-1.68-4.33-3.33l-.05-.09c-1.37-2.37-2.24-5.03-2.55-7.75-3.15-2.65-4.6-6.81-3.73-10.91.1-.47.3-.89.58-1.24-1.86-2.91-2.37-6.63-1.05-10.1.3-.8.91-1.39,1.64-1.71-1.62-3.26-1.64-7.25.31-10.64.84-1.45,2.7-1.96,4.16-1.12l1.96,1.13h0s26.03,14.99,26.03,14.99c3.06,1.76,5.61,4.31,7.36,7.36,2.63,4.57,3.36,10.11,1.98,15.2-1.36,5.08-4.77,9.51-9.34,12.14l-11.16,6.43c-1.1.63-2.32.96-3.55.96m4.7-30.48c-.98,0-1.95.26-2.84.77-1.34.77-2.27,1.98-2.68,3.49-.4,1.5-.2,3,.57,4.35l.06.1c.95,1.64,1.2,3.57.7,5.41-.08.29-.17.56-.28.83l7.35-4.23c1.34-.77,2.27-1.98,2.68-3.49.4-1.5.2-3-.57-4.35-.54-.93-1.24-1.65-2.02-2.06-.41-.22-1.09-.52-1.46-.62-.5-.13-1.01-.2-1.51-.2"/><path class="cls-5" d="m348.81,25.15c-1.59-2.77-3.84-4.94-6.43-6.43l-27.99-16.11h0c-.25-.15-.56-.06-.7.18-2.4,4.17-.97,9.5,3.2,11.9l7.44,4.29-11.76-4.5c-.26-.1-.56.03-.66.3h0c-1.72,4.5.53,9.53,5.03,11.25l.72.27-4.56-.96c-.28-.06-.55.12-.61.4h0c-.76,3.59.81,7.13,3.68,9.05.14,2.67.89,5.36,2.31,7.82l.05.09c1.27,2.21,4.09,2.97,6.3,1.7,2.21-1.27,2.97-4.09,1.7-6.3l-.05-.09c-1.14-1.99-1.37-4.22-.82-6.27.56-2.06,1.87-3.87,3.86-5.02,1.99-1.14,4.22-1.37,6.27-.82.63.17,1.5.57,1.98.82,1.25.66,2.28,1.72,3.04,3.04,1.14,1.99,1.37,4.22.82,6.27-.56,2.06-1.87,3.87-3.86,5.02l-11.16,6.43c-2.21,1.27-2.97,4.09-1.7,6.3,1.27,2.21,4.09,2.97,6.3,1.7l11.16-6.43c4.17-2.4,7.01-6.3,8.16-10.61,1.17-4.31.67-9.1-1.73-13.27"/><path class="cls-6" d="m327.15,40.39c0,2.55-2.07,4.61-4.61,4.61s-4.61-2.07-4.61-4.61,2.07-4.61,4.61-4.61,4.61,2.07,4.61,4.61"/><path class="cls-6" d="m331.22,55.46l11.16-6.43c2.21-1.27,2.97-4.09,1.7-6.3-1.27-2.21-4.09-2.97-6.3-1.7l-11.16,6.43c-2.21,1.27-2.97,4.09-1.7,6.3,1.27,2.21,4.09,2.97,6.3,1.7"/></g></svg>