<?xml version="1.0" encoding="utf-8"?>
<!-- Generator: Adobe Illustrator 28.0.0, SVG Export Plug-In . SVG Version: 6.00 Build 0)  -->
<svg version="1.1" id="Capa_1" xmlns="http://www.w3.org/2000/svg" xmlns:xlink="http://www.w3.org/1999/xlink" x="0px" y="0px"
	 viewBox="0 0 267.4 263" style="enable-background:new 0 0 267.4 263;" xml:space="preserve">
<style type="text/css">
	.st0{fill:#FFFFFF;}
	.st1{fill:url(#SVGID_1_);}
</style>
<g>
	
		<image style="overflow:visible;opacity:0.4;enable-background:new    ;" width="1100" height="1100" xlink:href="C572F4132ABA6A1.png"  transform="matrix(0.2391 0 0 0.2391 0 0)">
	</image>
	<g>
		<g>
			<path class="st0" d="M123.4,5.7c5,0,9.9,0,14.9,0c0.6,0.1,1.2,0.4,1.8,0.4c20.7,1.5,39.8,7.9,57,19.4
				c28.6,19.1,46.3,45.5,52.6,79.4c0.8,4.4,1.3,8.8,1.9,13.2c0,5,0,9.9,0,14.9c-0.2,1.6-0.4,3.1-0.6,4.7
				c-2.4,21.4-9.6,41.1-22.6,58.3c-23,30.5-53.7,47-91.8,49.2c-21.2,1.2-41.5-3.2-60.5-12.9c-1.8-0.9-3.4-0.9-5.2-0.4
				c-19.8,6.4-39.7,12.7-59.6,19c-1.6,0.5-3.2,1-4.7-0.4c-1.5-1.5-0.8-3.1-0.3-4.7c6.4-19,12.9-38,19.4-56.9c0.7-2,0.5-3.5-0.5-5.4
				c-18-33.5-20.8-68.2-6-103.3c16.9-40.2,47.7-64.1,90.4-72.7C114.2,6.7,118.8,6.3,123.4,5.7z M43.5,214.5c1.1-0.3,1.7-0.4,2.3-0.6
				c9.4-3,18.9-5.9,28.3-9c1.9-0.6,3.5-0.4,5.2,0.6c3.3,2,6.6,4,10.1,5.6c22.9,10.7,46.5,12.4,70.5,4.9c16.8-5.3,31.2-14.7,42.8-28
				c13.5-15.3,21.3-33.2,23.3-53.4c2.1-21.3-2.8-41.2-14.3-59.3c-13.2-20.7-31.8-34.3-55.4-41c-17.9-5.1-35.9-4.8-53.7,0.7
				c-17.2,5.3-31.8,14.7-43.8,28.2C45.3,78.6,37.4,96.6,35.6,117c-2,22.7,3.5,43.6,16.6,62.4c1.6,2.3,1.8,4.4,0.9,6.9
				C49.9,195.6,46.8,204.8,43.5,214.5z"/>
			
				<radialGradient id="SVGID_1_" cx="130.8388" cy="209.7223" r="135.2571" fx="112.0693" fy="110.2417" gradientTransform="matrix(1 0 0 -1.117 0 359.8303)" gradientUnits="userSpaceOnUse">
				<stop  offset="0" style="stop-color:#60F57F"/>
				<stop  offset="0.3103" style="stop-color:#40D65E"/>
				<stop  offset="0.7359" style="stop-color:#18AF34"/>
			</radialGradient>
			<path class="st1" d="M43.5,214.5c3.3-9.6,6.4-18.9,9.6-28.1c0.9-2.6,0.7-4.6-0.9-6.9c-13.1-18.8-18.7-39.7-16.6-62.4
				c1.8-20.4,9.8-38.4,23.3-53.9c11.9-13.5,26.6-23,43.8-28.2c17.8-5.5,35.8-5.8,53.7-0.7c23.6,6.7,42.2,20.3,55.4,41
				c11.5,18.1,16.3,37.9,14.3,59.3c-2,20.2-9.8,38.1-23.3,53.4c-11.7,13.3-26,22.7-42.8,28c-24.1,7.5-47.7,5.9-70.5-4.9
				c-3.5-1.6-6.8-3.6-10.1-5.6c-1.7-1-3.3-1.2-5.2-0.6c-9.4,3.1-18.9,6-28.3,9C45.2,214,44.6,214.2,43.5,214.5z"/>
		</g>
	</g>
</g>
<path class="st0" d="M100.3,183.2c6.9,0,13.6-2,20.2-4c26.7-8.1,45.6-25.9,61.1-48.2c5.4-7.8,10.2-15.9,11.6-25.5
	c1.4-9.5-0.1-18.4-5.4-26.6c-3.5-5.4-8.8-7.7-14.8-8.7c-1.8-0.3-3.6-0.5-5.5-0.7c-3.9-0.5-6.9,1-8.5,4.5
	c-3.7,8.2-7.2,16.5-10.6,24.9c-1.5,3.7,0.4,6.9,2.4,9.8c1.7,2.5,3.9,4.7,5.7,7.1c0.4,0.6,0.7,1.9,0.3,2.4
	c-9.7,13.8-21.4,25.2-37.1,32c-1.7,0.7-2.7,0.6-3.8-0.9c-2.4-3.2-5-6.2-7.5-9.3c-3.4-4.2-6.1-5-11.1-2.7c-4.5,2-9,4.1-13.5,6.2
	c-3.2,1.6-6.4,3.2-9.7,4.8c-2.6,1.3-3.8,3.4-3.9,6.3C69.5,172.6,84.3,181.8,97,183C98.1,183.1,99.1,183.1,100.3,183.2z"/>
</svg>
