<?xml version="1.0" encoding="UTF-8"?><svg id="Capa_2" xmlns="http://www.w3.org/2000/svg" viewBox="0 0 313.38 87.93"><defs><style>.cls-1{fill:#832671;stroke-width:0px;}</style></defs><g id="Textos"><polygon class="cls-1" points="38.45 2.03 0 45.17 44.41 87.93 63.82 60.78 44.41 80.06 9.39 44.98 38.45 2.03"/><polygon class="cls-1" points="0 54.95 8.72 56.1 44.41 87.93 0 54.95"/><polygon class="cls-1" points="71.43 59.25 88.56 41.49 43.74 0 11.93 45.55 43.74 10.4 75.88 45.93 50.25 11.39 81.55 39.56 75.88 45.93 73.34 49.1 71.43 59.25"/><polygon class="cls-1" points="71.02 50.36 57.7 85.49 58.68 72.6 71.02 50.36"/><path class="cls-1" d="m38.24,62.92s2.22-1.15,5.63-1.15,5.91,1.15,5.91,1.15c0,0-3.22-.3-5.91-.3s-5.63.3-5.63.3"/><path class="cls-1" d="m41.41,24s.24.46.7.51c.46.05,2.83,0,3.27,0s.96-.51.96-.51h-4.92Z"/><path class="cls-1" d="m41.41,31.54s.24.46.7.51c.46.05,2.83,0,3.27,0s.96-.51.96-.51h-4.92Z"/><path class="cls-1" d="m52.97,63.12c-.17,3.61-8.73,3.04-11.3,3.02-2.01-.16-6.68-.19-6.81-3.04,0-.34.05-3.79.05-4.23.11-3.58-.12-7.26.49-10.79.84-4.74,2.49-9.27,4.25-13.72l.66-1.65c.58-1.65.55-3.42.67-5.16.05-1.18.08-2.37.09-3.56v-.04s.04,0,.04,0h5.58s0,.04,0,.04c.07,1.66.16,3.32.29,4.97.13,1.62.25,3.23.97,4.7,1.25,3.09,2.44,6.22,3.38,9.44.71,2.44,1.31,4.95,1.51,7.52.13,1.77.11,10.58.14,12.51m-2.37,0l.06-9.96c.04-1.6.03-3.22-.22-4.8-.72-4.87-2.17-9.58-3.64-14.3-.6-1.63-.61-3.39-.55-5.08.08-1.61.12-3.53.38-4.95,0,0-5.54,0-5.54,0,0,0,.04-.04.04-.04.21,2.81.56,5.71.1,8.54-1.27,4.08-2.65,8.19-3.52,12.37-.47,2.29-.86,4.6-.83,6.85.07,3.43.12,7.23.15,10.68v.45s0,.22,0,.22c0,.02,0-.03,0-.04,0-.05-.03-.07-.01-.06.32.26.83.38,1.4.51,2.17.4,4.58.4,6.82.35,1.15-.04,2.3-.12,3.38-.31.74-.14,1.41-.27,1.99-.64.02-.02.05-.04.05-.04,0,0,.02-.02,0,0-.01.03-.03.05-.04.08,0,.04-.04.11-.02.17"/><polygon class="cls-1" points="26.95 0 15.56 6.57 0 45.17 26.95 0"/><polygon class="cls-1" points="88.56 50.36 76.35 57.68 60.43 84.38 88.56 50.36"/><polygon class="cls-1" points="78.28 27.91 51.79 3.19 60.96 7.98 66.35 15.1 78.28 27.91"/><path class="cls-1" d="m119.97,68.21v.82h-6.32v-8.93h6.12v.82h-5.18v3.18h4.62v.8h-4.62v3.32h5.37Z"/><path class="cls-1" d="m152.67,60.09v8.93h-.78l-5.74-7.25v7.25h-.94v-8.93h.78l5.75,7.25v-7.25h.93Z"/><path class="cls-1" d="m186.39,60.09l-3.95,8.93h-.93l-3.96-8.93h1.02l3.42,7.76,3.44-7.76h.96Z"/><path class="cls-1" d="m216.21,66.64h-4.98l-1.07,2.39h-.98l4.08-8.93h.93l4.08,8.93h-1l-1.07-2.39Zm-.34-.77l-2.14-4.8-2.14,4.8h4.29Z"/><path class="cls-1" d="m242.51,67.94l.37-.73c.64.62,1.77,1.09,2.95,1.09,1.67,0,2.4-.7,2.4-1.58,0-2.45-5.5-.94-5.5-4.25,0-1.31,1.02-2.45,3.29-2.45,1.01,0,2.05.29,2.77.79l-.32.75c-.77-.5-1.66-.74-2.45-.74-1.63,0-2.36.73-2.36,1.62,0,2.45,5.5.97,5.5,4.22,0,1.31-1.05,2.44-3.33,2.44-1.34,0-2.65-.47-3.32-1.16Z"/><path class="cls-1" d="m280.89,68.21v.82h-6.32v-8.93h6.12v.82h-5.18v3.18h4.62v.8h-4.62v3.32h5.37Z"/><path class="cls-1" d="m305.71,67.94l.37-.73c.64.62,1.77,1.09,2.95,1.09,1.67,0,2.4-.7,2.4-1.58,0-2.45-5.5-.94-5.5-4.25,0-1.31,1.02-2.45,3.29-2.45,1.01,0,2.05.29,2.77.79l-.32.75c-.77-.5-1.66-.74-2.45-.74-1.63,0-2.36.73-2.36,1.62,0,2.45,5.5.97,5.5,4.22,0,1.31-1.05,2.44-3.33,2.44-1.34,0-2.65-.47-3.32-1.16Z"/><path class="cls-1" d="m129.15,49.27v-.35c.07,0,.24-.02.5-.07.26-.05.54-.13.83-.24.29-.12.54-.28.76-.48.22-.21.33-.47.33-.79,0-.21-.06-.55-.19-1.02-.13-.47-.31-1.05-.53-1.73-.23-.68-.49-1.43-.79-2.26-.3-.83-.62-1.69-.97-2.59h-9.18c-.34.87-.68,1.71-1,2.5s-.64,1.59-.97,2.4c-.48,1.24-.72,2.12-.72,2.62,0,.3.09.55.28.74.18.2.42.36.71.48.29.13.6.22.93.28.33.06.65.11.95.16v.35h-7.35v-.38c.6-.07,1.11-.23,1.54-.48.43-.25.67-.43.74-.52.16-.16.43-.54.79-1.14.37-.6.82-1.48,1.35-2.66.48-1.08,1.02-2.31,1.62-3.69.6-1.38,1.21-2.8,1.85-4.26.63-1.46,1.26-2.93,1.88-4.42.62-1.48,1.21-2.87,1.76-4.16l-.34-.76c.41-.18.79-.4,1.12-.66.33-.25.63-.52.88-.79.25-.28.47-.54.64-.79.17-.25.31-.46.4-.62h.28c.71,1.91,1.39,3.72,2.04,5.44s1.26,3.37,1.85,4.95,1.16,3.12,1.71,4.61,1.1,2.95,1.66,4.4c.25.71.49,1.31.71,1.78.22.47.47,1.01.74,1.61.05.09.15.25.31.48.16.23.37.47.64.71.26.24.59.45.98.64.39.18.85.29,1.38.31v.41h-10.08Zm-4.52-20.92c-.14.3-.34.77-.6,1.42-.26.64-.59,1.43-.98,2.35-.39.92-.82,1.96-1.3,3.12-.47,1.16-.98,2.42-1.54,3.78h8.59c-.39-1.04-.79-2.07-1.19-3.11-.4-1.04-.79-2.03-1.17-2.99-.38-.96-.72-1.83-1.04-2.62-.31-.79-.57-1.44-.78-1.95Z"/><path class="cls-1" d="m161.91,49.27v-.38c.99-.05,1.82-.25,2.49-.62.67-.37,1.12-.79,1.35-1.28.14-.3.24-.67.31-1.12s.12-.9.14-1.36c.05-1.52.07-2.97.07-4.35v-14.05c-.76,1.7-1.46,3.27-2.09,4.69-.63,1.43-1.26,2.82-1.88,4.18-.62,1.36-1.25,2.74-1.88,4.16-.63,1.41-1.33,2.97-2.09,4.68-.12.23-.28.59-.48,1.09-.21.49-.41,1-.62,1.52-.21.52-.4.99-.59,1.42-.18.43-.3.71-.35.85h-.21c-.74-1.7-1.47-3.39-2.19-5.07-.73-1.68-1.43-3.3-2.12-4.85-.69-1.55-1.34-3.01-1.93-4.37-.6-1.36-1.14-2.57-1.62-3.62s-.88-1.94-1.19-2.66c-.31-.71-.52-1.2-.64-1.45,0,1.52,0,2.86-.02,4.02-.01,1.16-.02,2.31-.03,3.45-.01,1.14-.02,2.34-.02,3.61v4.42c0,1.08.03,2.02.1,2.81.07.79.24,1.46.52,2s.7.97,1.26,1.28c.56.31,1.34.53,2.33.67v.35h-9.01v-.35c.8-.16,1.46-.4,1.97-.71.51-.31.91-.74,1.21-1.29s.52-1.24.66-2.05c.14-.82.22-1.81.24-2.99.05-.99.08-2.16.1-3.5.02-1.35.04-2.79.04-4.33v-4.35c0-.46-.01-1.02-.04-1.69-.02-.64-.16-1.17-.41-1.57-.25-.4-.55-.72-.9-.95-.35-.23-.71-.4-1.1-.5-.39-.1-.73-.18-1-.22v-.34h7.35l8.25,18.78c1.01-2.19,2-4.36,2.97-6.52.97-2.16,1.84-4.12,2.61-5.87.77-1.75,1.4-3.2,1.9-4.37.49-1.16.78-1.84.85-2.02h7.35v.34c-.94.02-1.66.22-2.16.59-.5.37-.83.81-1.02,1.31-.14.39-.23,1-.28,1.83s-.08,1.65-.1,2.45c-.02,1.1-.03,2.18-.03,3.21v6.87c0,1.22.01,2.51.03,3.87,0,.44.03.88.09,1.33.06.45.16.8.29,1.05.02.05.11.16.26.33.15.17.36.36.64.55.28.2.62.37,1.04.52.41.15.9.24,1.45.26v.35h-11.84Z"/><path class="cls-1" d="m192.56,49.27v-.35c.07,0,.24-.02.5-.07.26-.05.54-.13.83-.24.29-.12.54-.28.76-.48.22-.21.33-.47.33-.79,0-.21-.06-.55-.19-1.02-.13-.47-.31-1.05-.53-1.73-.23-.68-.49-1.43-.79-2.26-.3-.83-.62-1.69-.97-2.59h-9.18c-.34.87-.68,1.71-1,2.5s-.64,1.59-.97,2.4c-.48,1.24-.72,2.12-.72,2.62,0,.3.09.55.28.74.18.2.42.36.71.48.29.13.6.22.93.28.33.06.65.11.95.16v.35h-7.35v-.38c.6-.07,1.11-.23,1.54-.48.43-.25.67-.43.74-.52.16-.16.43-.54.79-1.14.37-.6.82-1.48,1.35-2.66.48-1.08,1.02-2.31,1.62-3.69.6-1.38,1.21-2.8,1.85-4.26.63-1.46,1.26-2.93,1.88-4.42.62-1.48,1.21-2.87,1.76-4.16l-.34-.76c.41-.18.79-.4,1.12-.66.33-.25.63-.52.88-.79.25-.28.47-.54.64-.79.17-.25.31-.46.4-.62h.28c.71,1.91,1.39,3.72,2.04,5.44s1.26,3.37,1.85,4.95,1.16,3.12,1.71,4.61,1.1,2.95,1.66,4.4c.25.71.49,1.31.71,1.78.22.47.47,1.01.74,1.61.05.09.15.25.31.48.16.23.37.47.64.71.26.24.59.45.98.64.39.18.85.29,1.38.31v.41h-10.08Zm-4.52-20.92c-.14.3-.34.77-.6,1.42-.26.64-.59,1.43-.98,2.35-.39.92-.82,1.96-1.3,3.12-.47,1.16-.98,2.42-1.54,3.78h8.59c-.39-1.04-.79-2.07-1.19-3.11-.4-1.04-.79-2.03-1.17-2.99-.38-.96-.72-1.83-1.04-2.62-.31-.79-.57-1.44-.78-1.95Z"/><path class="cls-1" d="m226.42,30.9c-.18-.41-.4-.85-.66-1.29-.25-.45-.51-.87-.78-1.26-.26-.39-.52-.75-.78-1.09-.25-.33-.47-.58-.66-.74-.48-.46-1.01-.76-1.57-.91-.56-.15-1.28-.24-2.16-.26-.44,0-.82,0-1.14-.02s-.64-.02-.97-.02h-2.28c0,.57,0,1.36-.02,2.35-.01.99-.02,2.02-.02,3.11v13.5c0,.67.02,1.31.05,1.92.03.61.14,1.04.33,1.29.34.51.83.85,1.47,1.04s1.2.32,1.71.41v.35h-11.22v-.35c.6-.07,1.17-.18,1.73-.34.55-.16,1.09-.54,1.62-1.14.11-.11.2-.3.26-.57.06-.26.1-.56.14-.9.03-.33.06-.7.07-1.09s.02-.77.02-1.14c0-.32,0-.75.02-1.28.01-.53.02-1.12.03-1.76.01-.64.02-1.31.02-2v-13.39h-2.28c-.3,0-.62,0-.95.02-.33.01-.72.02-1.16.02-.87.02-1.59.13-2.16.31-.56.18-1.09.51-1.57.97-.18.16-.4.4-.64.73-.24.32-.49.67-.76,1.05-.26.38-.52.79-.76,1.23s-.43.86-.57,1.28l-.31-.1,1.04-6.56c.53.12,1.02.21,1.47.28.45.07,1.1.12,1.95.14.87.02,1.66.04,2.35.05.69.01,1.36.02,2,.02h6.56c.69,0,1.36,0,2-.02.64-.01,1.31-.02,2-.03.69-.01,1.47-.02,2.35-.02.76-.02,1.39-.09,1.88-.19.49-.1,1.01-.24,1.54-.4l1.1,6.73-.31.1Z"/><path class="cls-1" d="m229.08,49.27v-.35c.57-.09,1.11-.24,1.61-.45.49-.21.91-.51,1.26-.9.12-.14.2-.33.26-.59.06-.25.1-.55.14-.9.03-.34.06-.71.07-1.09.01-.38.02-.75.02-1.12,0-.32,0-.76.02-1.31.01-.55.02-1.16.03-1.81.01-.66.02-1.33.02-2.02v-9.98c0-.42-.02-.8-.05-1.16-.03-.36-.09-.68-.16-.97-.07-.29-.17-.51-.31-.67-.32-.39-.72-.67-1.19-.85-.47-.17-1.01-.29-1.61-.36v-.34h10.32v.34c-.48.07-1,.2-1.55.38-.55.18-.98.55-1.28,1.1-.21.39-.32.89-.33,1.48-.01.6-.03,1.16-.05,1.69,0,.58,0,1.14-.02,1.71-.01.56-.02,1.13-.02,1.71v11.56c0,.67.01,1.31.03,1.93.02.62.13,1.06.31,1.31.28.39.71.69,1.31.9.6.21,1.14.33,1.62.38v.35h-10.46Z"/><path class="cls-1" d="m260.1,45.44c-.45.88-1.07,1.62-1.86,2.24s-1.74,1.08-2.85,1.38c-1.1.3-2.31.45-3.62.45-1.13,0-2.09-.07-2.9-.21-.81-.14-1.47-.3-2-.5-.53-.2-.93-.37-1.19-.53-.26-.16-.43-.24-.5-.24s-.22.14-.45.41c-.23.28-.44.54-.62.79h-.31l-.1-6.87h.34c.21.62.47,1.23.79,1.81.32.59.67,1.14,1.05,1.66s.78.97,1.21,1.36c.43.39.83.69,1.23.9.39.21.91.41,1.55.62.64.21,1.27.31,1.86.31,1.7,0,3.08-.47,4.14-1.4,1.06-.93,1.59-2.19,1.59-3.78,0-.64-.1-1.21-.31-1.69-.21-.48-.49-.9-.85-1.26-.36-.36-.78-.66-1.26-.91-.48-.25-1-.48-1.55-.69-.55-.21-1.04-.38-1.45-.52-.41-.14-.8-.27-1.16-.4-.36-.13-.73-.25-1.1-.38-.38-.13-.83-.29-1.36-.5-.6-.23-1.17-.55-1.73-.95-.55-.4-1.04-.87-1.45-1.42-.41-.54-.75-1.14-1-1.79-.25-.66-.38-1.35-.38-2.09,0-1.24.23-2.31.68-3.21.45-.9,1.06-1.65,1.83-2.24.77-.6,1.65-1.04,2.65-1.33,1-.29,2.05-.43,3.16-.43,1.04,0,1.92.09,2.66.26.74.17,1.34.36,1.81.57.47.21.83.4,1.07.57.24.17.37.26.4.26.07,0,.21-.14.43-.41.22-.28.42-.55.6-.83h.38v6.39h-.38c-.28-.76-.63-1.51-1.07-2.26-.44-.75-.94-1.41-1.52-2-.58-.59-1.23-1.06-1.97-1.43-.74-.37-1.55-.55-2.45-.55-.71,0-1.39.1-2.02.31-.63.21-1.19.52-1.66.93-.47.41-.84.93-1.1,1.54-.26.61-.4,1.31-.4,2.09,0,1.22.37,2.2,1.1,2.93.73.74,1.69,1.32,2.86,1.76.46.18.89.34,1.29.48.4.14.8.27,1.19.4.39.13.79.26,1.19.4.4.14.82.29,1.26.45,1.56.58,2.77,1.41,3.63,2.5.86,1.09,1.29,2.46,1.29,4.09,0,1.1-.22,2.09-.67,2.97Z"/><path class="cls-1" d="m288.97,30.9c-.18-.41-.4-.85-.66-1.29-.25-.45-.51-.87-.78-1.26-.26-.39-.52-.75-.78-1.09-.25-.33-.47-.58-.66-.74-.48-.46-1.01-.76-1.57-.91-.56-.15-1.28-.24-2.16-.26-.44,0-.82,0-1.14-.02s-.64-.02-.97-.02h-2.28c0,.57,0,1.36-.02,2.35-.01.99-.02,2.02-.02,3.11v13.5c0,.67.02,1.31.05,1.92.03.61.14,1.04.33,1.29.34.51.83.85,1.47,1.04.63.18,1.2.32,1.71.41v.35h-11.22v-.35c.6-.07,1.17-.18,1.73-.34.55-.16,1.09-.54,1.62-1.14.11-.11.2-.3.26-.57.06-.26.1-.56.14-.9.03-.33.06-.7.07-1.09s.02-.77.02-1.14c0-.32,0-.75.02-1.28s.02-1.12.03-1.76c.01-.64.02-1.31.02-2v-13.39h-2.28c-.3,0-.62,0-.95.02-.33.01-.72.02-1.16.02-.87.02-1.59.13-2.16.31-.56.18-1.09.51-1.57.97-.18.16-.4.4-.64.73-.24.32-.5.67-.76,1.05-.26.38-.52.79-.76,1.23-.24.44-.43.86-.57,1.28l-.31-.1,1.04-6.56c.53.12,1.02.21,1.47.28.45.07,1.1.12,1.95.14.87.02,1.66.04,2.35.05s1.36.02,2,.02h6.56c.69,0,1.36,0,2-.02s1.31-.02,2-.03,1.47-.02,2.35-.02c.76-.02,1.39-.09,1.88-.19.49-.1,1.01-.24,1.54-.4l1.1,6.73-.31.1Z"/><path class="cls-1" d="m303.3,49.27v-.35c.07,0,.24-.02.5-.07.26-.05.54-.13.83-.24.29-.12.54-.28.76-.48.22-.21.33-.47.33-.79,0-.21-.06-.55-.19-1.02-.13-.47-.31-1.05-.54-1.73-.23-.68-.49-1.43-.79-2.26-.3-.83-.62-1.69-.97-2.59h-9.18c-.35.87-.68,1.71-1,2.5-.32.79-.65,1.59-.97,2.4-.48,1.24-.73,2.12-.73,2.62,0,.3.09.55.28.74s.42.36.71.48c.29.13.6.22.93.28.33.06.65.11.95.16v.35h-7.35v-.38c.6-.07,1.11-.23,1.54-.48.43-.25.67-.43.74-.52.16-.16.43-.54.79-1.14.37-.6.82-1.48,1.35-2.66.48-1.08,1.02-2.31,1.62-3.69.6-1.38,1.21-2.8,1.85-4.26.63-1.46,1.26-2.93,1.88-4.42.62-1.48,1.21-2.87,1.76-4.16l-.35-.76c.41-.18.79-.4,1.12-.66.33-.25.63-.52.88-.79s.47-.54.64-.79c.17-.25.3-.46.4-.62h.28c.71,1.91,1.39,3.72,2.04,5.44.64,1.71,1.26,3.37,1.85,4.95.59,1.59,1.16,3.12,1.71,4.61s1.1,2.95,1.66,4.4c.25.71.49,1.31.71,1.78.22.47.47,1.01.74,1.61.05.09.15.25.31.48.16.23.37.47.64.71.26.24.59.45.98.64.39.18.85.29,1.38.31v.41h-10.08Zm-4.52-20.92c-.14.3-.34.77-.6,1.42s-.59,1.43-.98,2.35-.82,1.96-1.29,3.12c-.47,1.16-.98,2.42-1.54,3.78h8.6c-.39-1.04-.79-2.07-1.19-3.11-.4-1.04-.79-2.03-1.17-2.99s-.73-1.83-1.04-2.62c-.31-.79-.57-1.44-.78-1.95Z"/></g></svg>