<?xml version="1.0" encoding="UTF-8"?><svg id="Capa_2" xmlns="http://www.w3.org/2000/svg" viewBox="0 0 208.29 201.56"><defs><style>.cls-1{fill:#fff;stroke-width:0px;}</style></defs><g id="Textos"><path class="cls-1" d="m7.53,200.64v.85H.97v-9.27h6.36v.85H1.95v3.3h4.79v.83H1.95v3.44h5.58Z"/><path class="cls-1" d="m41.47,192.21v9.27h-.81l-5.96-7.52v7.52h-.98v-9.27h.81l5.97,7.52v-7.52h.97Z"/><path class="cls-1" d="m76.47,192.21l-4.11,9.27h-.97l-4.11-9.27h1.06l3.55,8.05,3.58-8.05h.99Z"/><path class="cls-1" d="m107.43,199.01h-5.17l-1.11,2.48h-1.02l4.24-9.27h.97l4.24,9.27h-1.03l-1.11-2.48Zm-.36-.8l-2.22-4.98-2.23,4.98h4.45Z"/><path class="cls-1" d="m134.73,200.36l.38-.76c.66.65,1.84,1.13,3.06,1.13,1.74,0,2.49-.73,2.49-1.64,0-2.54-5.71-.98-5.71-4.41,0-1.36,1.06-2.54,3.42-2.54,1.05,0,2.13.3,2.87.82l-.33.78c-.79-.52-1.72-.77-2.54-.77-1.7,0-2.45.76-2.45,1.68,0,2.54,5.71,1.01,5.71,4.38,0,1.36-1.09,2.53-3.46,2.53-1.39,0-2.75-.49-3.44-1.2Z"/><path class="cls-1" d="m174.57,200.64v.85h-6.56v-9.27h6.36v.85h-5.38v3.3h4.79v.83h-4.79v3.44h5.58Z"/><path class="cls-1" d="m200.33,200.36l.38-.76c.66.65,1.84,1.13,3.06,1.13,1.74,0,2.49-.73,2.49-1.64,0-2.54-5.71-.98-5.71-4.41,0-1.36,1.06-2.54,3.42-2.54,1.05,0,2.13.3,2.87.82l-.33.78c-.8-.52-1.72-.77-2.54-.77-1.7,0-2.45.76-2.45,1.68,0,2.54,5.71,1.01,5.71,4.38,0,1.36-1.09,2.53-3.46,2.53-1.39,0-2.76-.49-3.44-1.2Z"/><polygon class="cls-1" points="95.53 3 38.81 66.64 104.33 129.72 132.97 89.66 104.33 118.12 52.66 66.36 95.53 3"/><polygon class="cls-1" points="38.81 81.07 51.68 82.76 104.33 129.72 38.81 81.07"/><polygon class="cls-1" points="144.2 87.42 169.47 61.21 103.34 0 56.41 67.2 103.34 15.35 150.75 67.76 112.94 16.8 159.13 58.36 150.75 67.76 147.01 72.44 144.2 87.42"/><polygon class="cls-1" points="143.59 74.3 123.94 126.12 125.37 107.1 143.59 74.3"/><path class="cls-1" d="m95.23,92.83s3.27-1.69,8.3-1.69,8.71,1.69,8.71,1.69c0,0-4.75-.44-8.71-.44s-8.3.44-8.3.44"/><path class="cls-1" d="m99.9,35.4s.35.68,1.03.75c.67.07,4.18,0,4.82,0s1.41-.75,1.41-.75h-7.26Z"/><path class="cls-1" d="m99.9,46.53s.35.68,1.03.75c.67.07,4.18,0,4.82,0s1.41-.75,1.41-.75h-7.26Z"/><path class="cls-1" d="m116.96,93.12c-.24,5.33-12.88,4.49-16.67,4.46-2.96-.24-9.86-.29-10.05-4.48,0-.5.07-5.6.07-6.24.16-5.29-.18-10.7.72-15.92,1.24-6.99,3.67-13.68,6.27-20.24l.98-2.43c.86-2.43.82-5.04.99-7.61.08-1.75.12-3.5.13-5.25v-.06s.05,0,.05,0h8.23s0,.05,0,.05c.11,2.44.24,4.89.43,7.33.2,2.39.37,4.76,1.43,6.93,1.84,4.56,3.6,9.18,4.99,13.92,1.05,3.6,1.93,7.3,2.23,11.09.19,2.6.16,15.61.21,18.45m-3.49,0l.09-14.69c.06-2.36.05-4.75-.32-7.08-1.05-7.18-3.21-14.13-5.36-21.1-.89-2.4-.9-4.99-.81-7.49.12-2.37.17-5.21.56-7.3,0,0-8.17,0-8.18,0,0,0,.05-.06.05-.05.31,4.15.82,8.42.14,12.6-1.88,6.02-3.91,12.09-5.19,18.25-.69,3.38-1.27,6.78-1.22,10.11.11,5.06.17,10.66.22,15.75v.66s.01.33.01.33c.01.02,0-.04,0-.06,0-.07-.05-.11-.02-.09.47.38,1.22.56,2.07.75,3.2.6,6.76.59,10.06.51,1.7-.06,3.39-.18,4.98-.46,1.09-.21,2.08-.39,2.94-.95.04-.03.08-.05.07-.06,0,0,.04-.03,0,0-.01.04-.04.07-.06.12,0,.05-.06.16-.04.25"/><polygon class="cls-1" points="78.57 0 61.77 9.7 38.81 66.64 78.57 0"/><polygon class="cls-1" points="169.47 74.3 151.45 85.1 127.96 124.49 169.47 74.3"/><polygon class="cls-1" points="154.29 41.17 115.21 4.71 128.74 11.77 136.7 22.27 154.29 41.17"/><path class="cls-1" d="m17.06,180.98v-.36c.07,0,.25-.02.52-.07.27-.05.56-.13.86-.25.3-.12.56-.29.79-.5.23-.22.34-.49.34-.82,0-.21-.07-.57-.2-1.06-.13-.49-.32-1.09-.55-1.79-.24-.7-.51-1.49-.82-2.35-.31-.86-.64-1.76-1-2.69H7.45c-.36.91-.7,1.77-1.04,2.6s-.67,1.65-1,2.49c-.5,1.29-.75,2.2-.75,2.72,0,.31.1.57.29.77.19.2.44.37.73.5.3.13.62.23.97.29.35.06.67.11.99.16v.36H0v-.39c.62-.07,1.15-.24,1.59-.5.44-.26.7-.44.77-.54.17-.17.44-.56.82-1.18.38-.62.85-1.54,1.4-2.76.5-1.12,1.06-2.4,1.68-3.83.62-1.43,1.26-2.91,1.92-4.43.66-1.52,1.31-3.05,1.95-4.59.64-1.54,1.25-2.98,1.83-4.32l-.36-.79c.43-.19.82-.42,1.16-.68.35-.26.65-.54.91-.82.26-.29.48-.56.66-.82.18-.26.32-.48.41-.64h.29c.74,1.98,1.45,3.86,2.11,5.64s1.31,3.49,1.92,5.14,1.2,3.24,1.77,4.78,1.15,3.06,1.72,4.57c.26.74.51,1.36.73,1.84.23.49.48,1.05.77,1.67.05.1.16.26.32.5.17.24.39.48.66.73.27.25.61.47,1.02.66.41.19.88.3,1.43.32v.43h-10.46Zm-4.69-21.71c-.14.31-.35.8-.63,1.47-.27.67-.62,1.48-1.02,2.44-.41.96-.85,2.04-1.34,3.24-.49,1.21-1.02,2.52-1.59,3.92h8.92c-.41-1.08-.82-2.15-1.24-3.22-.42-1.08-.82-2.11-1.22-3.1-.39-.99-.75-1.9-1.07-2.72-.32-.82-.59-1.5-.81-2.02Z"/><path class="cls-1" d="m51.06,180.98v-.39c1.03-.05,1.89-.26,2.58-.64.69-.38,1.16-.82,1.4-1.33.14-.31.25-.7.32-1.16s.12-.94.14-1.42c.05-1.58.07-3.08.07-4.51v-14.58c-.79,1.77-1.51,3.39-2.17,4.87-.66,1.48-1.31,2.93-1.95,4.34-.64,1.41-1.3,2.85-1.95,4.32-.66,1.47-1.38,3.09-2.17,4.86-.12.24-.29.62-.5,1.13-.22.51-.43,1.04-.64,1.58-.22.54-.42,1.03-.61,1.47-.19.44-.31.73-.36.88h-.21c-.77-1.77-1.52-3.52-2.28-5.27-.75-1.74-1.49-3.42-2.2-5.03-.72-1.61-1.39-3.12-2.01-4.53-.62-1.41-1.18-2.66-1.68-3.76s-.91-2.02-1.24-2.76c-.32-.74-.54-1.24-.66-1.51,0,1.58,0,2.97-.02,4.17-.01,1.21-.02,2.4-.04,3.58-.01,1.18-.02,2.43-.02,3.74v4.59c0,1.12.04,2.1.11,2.92.07.82.25,1.52.54,2.08s.72,1,1.31,1.33c.58.32,1.39.55,2.42.7v.36h-9.35v-.36c.84-.17,1.52-.41,2.04-.73.53-.32.94-.77,1.25-1.34s.54-1.28.68-2.13c.14-.85.23-1.88.25-3.1.05-1.03.08-2.24.11-3.64.02-1.4.04-2.9.04-4.5v-4.52c0-.48-.01-1.06-.04-1.76-.02-.67-.17-1.21-.43-1.63-.26-.42-.57-.75-.93-.99-.36-.24-.74-.41-1.15-.52-.41-.11-.75-.18-1.04-.23v-.36h7.63l8.56,19.49c1.05-2.27,2.08-4.53,3.08-6.77,1-2.25,1.91-4.28,2.71-6.09.8-1.81,1.46-3.33,1.97-4.53.51-1.21.81-1.91.88-2.1h7.63v.36c-.98.02-1.73.23-2.24.61-.51.38-.87.84-1.06,1.36-.14.41-.24,1.04-.29,1.9s-.08,1.71-.11,2.54c-.02,1.15-.04,2.26-.04,3.33v7.13c0,1.27.01,2.6.04,4.01,0,.45.03.91.09,1.38.06.47.16.83.3,1.09.02.05.11.16.27.34.15.18.38.37.66.57.29.2.64.38,1.07.54.43.16.93.25,1.51.27v.36h-12.29Z"/><path class="cls-1" d="m82.88,180.98v-.36c.07,0,.25-.02.52-.07.27-.05.56-.13.86-.25.3-.12.56-.29.79-.5.23-.22.34-.49.34-.82,0-.21-.07-.57-.2-1.06-.13-.49-.32-1.09-.55-1.79-.24-.7-.51-1.49-.82-2.35-.31-.86-.64-1.76-1-2.69h-9.53c-.36.91-.7,1.77-1.04,2.6s-.67,1.65-1,2.49c-.5,1.29-.75,2.2-.75,2.72,0,.31.1.57.29.77.19.2.44.37.73.5.3.13.62.23.97.29.35.06.67.11.99.16v.36h-7.63v-.39c.62-.07,1.15-.24,1.59-.5.44-.26.7-.44.77-.54.17-.17.44-.56.82-1.18.38-.62.85-1.54,1.4-2.76.5-1.12,1.06-2.4,1.68-3.83.62-1.43,1.26-2.91,1.92-4.43.66-1.52,1.31-3.05,1.95-4.59.64-1.54,1.25-2.98,1.83-4.32l-.36-.79c.43-.19.82-.42,1.16-.68.35-.26.65-.54.91-.82.26-.29.48-.56.66-.82.18-.26.32-.48.41-.64h.29c.74,1.98,1.45,3.86,2.11,5.64s1.31,3.49,1.92,5.14,1.2,3.24,1.77,4.78,1.15,3.06,1.72,4.57c.26.74.51,1.36.73,1.84.23.49.48,1.05.77,1.67.05.1.16.26.32.5.17.24.39.48.66.73.27.25.61.47,1.02.66.41.19.88.3,1.43.32v.43h-10.46Zm-4.69-21.71c-.14.31-.35.8-.63,1.47-.27.67-.62,1.48-1.02,2.44-.41.96-.85,2.04-1.34,3.24-.49,1.21-1.02,2.52-1.59,3.92h8.92c-.41-1.08-.82-2.15-1.24-3.22-.42-1.08-.82-2.11-1.22-3.1-.39-.99-.75-1.9-1.07-2.72-.32-.82-.59-1.5-.81-2.02Z"/><path class="cls-1" d="m118.03,161.91c-.19-.43-.42-.88-.68-1.34-.26-.47-.53-.9-.81-1.31-.27-.41-.54-.78-.81-1.13-.26-.35-.49-.6-.68-.77-.5-.48-1.05-.79-1.63-.95-.59-.15-1.33-.24-2.24-.27-.45,0-.85,0-1.18-.02s-.67-.02-1-.02h-2.36c0,.6,0,1.41-.02,2.44-.01,1.03-.02,2.1-.02,3.22v14.01c0,.69.02,1.36.05,1.99.04.63.15,1.08.34,1.34.36.53.87.88,1.52,1.08s1.25.33,1.77.43v.36h-11.65v-.36c.62-.07,1.22-.19,1.79-.36.57-.17,1.13-.56,1.68-1.18.12-.12.21-.32.27-.59.06-.27.11-.58.14-.93.04-.35.06-.72.07-1.13s.02-.8.02-1.18c0-.33,0-.78.02-1.33.01-.55.02-1.16.04-1.83.01-.67.02-1.36.02-2.08v-13.9h-2.36c-.31,0-.64,0-.99.02-.35.01-.75.02-1.2.02-.91.02-1.65.13-2.24.32-.59.19-1.13.53-1.63,1-.19.17-.41.42-.66.75-.25.34-.51.7-.79,1.09-.27.39-.54.82-.79,1.27s-.45.9-.59,1.33l-.32-.11,1.07-6.81c.55.12,1.06.22,1.52.29.47.07,1.14.12,2.02.14.91.02,1.72.04,2.44.05.72.01,1.41.02,2.08.02h6.81c.72,0,1.41,0,2.08-.02.67-.01,1.36-.02,2.08-.04.72-.01,1.53-.02,2.44-.02.79-.02,1.44-.09,1.95-.2.51-.11,1.04-.24,1.59-.41l1.15,6.99-.32.11Z"/><path class="cls-1" d="m120.79,180.98v-.36c.6-.1,1.15-.25,1.67-.47.51-.21.95-.53,1.31-.93.12-.14.21-.35.27-.61.06-.26.11-.57.14-.93.04-.36.06-.73.07-1.13.01-.39.02-.78.02-1.17,0-.33,0-.79.02-1.36.01-.57.02-1.2.04-1.88.01-.68.02-1.38.02-2.1v-10.35c0-.43-.02-.83-.05-1.2-.04-.37-.09-.7-.16-1-.07-.3-.18-.53-.32-.7-.33-.41-.75-.7-1.24-.88-.49-.18-1.05-.3-1.67-.38v-.36h10.71v.36c-.5.07-1.04.2-1.61.39-.57.19-1.01.57-1.33,1.15-.22.41-.33.92-.34,1.54-.01.62-.03,1.21-.05,1.76,0,.6,0,1.19-.02,1.77-.01.59-.02,1.18-.02,1.77v12c0,.69.01,1.36.04,2.01.02.64.13,1.1.32,1.36.29.41.74.72,1.36.93.62.22,1.18.35,1.68.39v.36h-10.86Z"/><path class="cls-1" d="m152.98,177c-.47.91-1.11,1.68-1.93,2.33s-1.81,1.12-2.96,1.43c-1.15.31-2.4.47-3.76.47-1.17,0-2.17-.07-3.01-.22-.84-.14-1.53-.32-2.08-.52-.55-.2-.96-.39-1.24-.55-.27-.17-.45-.25-.52-.25s-.23.14-.47.43c-.24.29-.45.56-.64.82h-.32l-.11-7.13h.36c.22.64.49,1.27.82,1.88.33.61.7,1.18,1.09,1.72s.81,1.01,1.25,1.42c.44.41.87.72,1.27.93.41.21.94.43,1.61.64.67.21,1.31.32,1.93.32,1.77,0,3.2-.48,4.3-1.45,1.1-.97,1.65-2.28,1.65-3.92,0-.67-.11-1.25-.32-1.76-.21-.5-.51-.94-.88-1.31-.37-.37-.81-.69-1.31-.95-.5-.26-1.04-.5-1.61-.72-.57-.21-1.08-.39-1.51-.54-.43-.14-.83-.28-1.2-.41-.37-.13-.75-.26-1.15-.39-.39-.13-.87-.3-1.42-.52-.62-.24-1.22-.57-1.79-.99-.57-.42-1.08-.91-1.51-1.47-.43-.56-.78-1.18-1.04-1.86-.26-.68-.39-1.4-.39-2.17,0-1.29.23-2.4.71-3.33.47-.93,1.1-1.71,1.9-2.33.8-.62,1.71-1.08,2.75-1.38,1.04-.3,2.13-.45,3.28-.45,1.08,0,1.99.09,2.76.27.76.18,1.39.38,1.88.59.49.22.86.41,1.11.59.25.18.39.27.41.27.07,0,.22-.14.45-.43.23-.29.44-.57.63-.86h.39v6.63h-.39c-.29-.79-.66-1.57-1.11-2.35-.45-.78-.98-1.47-1.58-2.08-.6-.61-1.28-1.1-2.04-1.49-.77-.38-1.61-.57-2.54-.57-.74,0-1.44.11-2.1.32-.66.22-1.23.54-1.72.97-.49.43-.87.96-1.15,1.59-.27.63-.41,1.36-.41,2.17,0,1.27.38,2.28,1.14,3.05.76.77,1.75,1.37,2.97,1.83.48.19.92.36,1.34.5.42.14.83.28,1.23.41.4.13.82.27,1.23.41.42.14.85.3,1.31.47,1.62.6,2.88,1.46,3.77,2.6.89,1.13,1.34,2.55,1.34,4.25,0,1.15-.23,2.17-.7,3.08Z"/><path class="cls-1" d="m182.96,161.91c-.19-.43-.42-.88-.68-1.34-.26-.47-.53-.9-.81-1.31-.27-.41-.54-.78-.81-1.13-.26-.35-.49-.6-.68-.77-.5-.48-1.05-.79-1.63-.95-.59-.15-1.33-.24-2.24-.27-.45,0-.85,0-1.18-.02s-.67-.02-1-.02h-2.36c0,.6,0,1.41-.02,2.44-.01,1.03-.02,2.1-.02,3.22v14.01c0,.69.02,1.36.05,1.99.04.63.15,1.08.34,1.34.36.53.87.88,1.52,1.08.66.19,1.25.33,1.77.43v.36h-11.65v-.36c.62-.07,1.22-.19,1.79-.36.57-.17,1.13-.56,1.68-1.18.12-.12.21-.32.27-.59.06-.27.11-.58.14-.93.04-.35.06-.72.07-1.13s.02-.8.02-1.18c0-.33,0-.78.02-1.33s.02-1.16.04-1.83c.01-.67.02-1.36.02-2.08v-13.9h-2.36c-.31,0-.64,0-.99.02-.35.01-.75.02-1.2.02-.91.02-1.65.13-2.24.32-.59.19-1.13.53-1.63,1-.19.17-.41.42-.66.75-.25.34-.51.7-.79,1.09-.27.39-.54.82-.79,1.27-.25.45-.45.9-.59,1.33l-.32-.11,1.08-6.81c.55.12,1.06.22,1.52.29.47.07,1.14.12,2.02.14.91.02,1.72.04,2.44.05s1.41.02,2.08.02h6.81c.72,0,1.41,0,2.08-.02s1.36-.02,2.08-.04,1.53-.02,2.44-.02c.79-.02,1.44-.09,1.95-.2.51-.11,1.04-.24,1.59-.41l1.15,6.99-.32.11Z"/><path class="cls-1" d="m197.83,180.98v-.36c.07,0,.24-.02.52-.07.27-.05.56-.13.86-.25.3-.12.56-.29.79-.5.23-.22.34-.49.34-.82,0-.21-.07-.57-.2-1.06-.13-.49-.32-1.09-.56-1.79-.24-.7-.51-1.49-.82-2.35-.31-.86-.64-1.76-1-2.69h-9.53c-.36.91-.71,1.77-1.04,2.6-.34.82-.67,1.65-1,2.49-.5,1.29-.75,2.2-.75,2.72,0,.31.1.57.29.77s.44.37.73.5c.3.13.62.23.97.29.35.06.67.11.99.16v.36h-7.63v-.39c.62-.07,1.15-.24,1.59-.5.44-.26.7-.44.77-.54.17-.17.44-.56.82-1.18.38-.62.85-1.54,1.4-2.76.5-1.12,1.06-2.4,1.68-3.83.62-1.43,1.26-2.91,1.92-4.43.66-1.52,1.31-3.05,1.95-4.59.64-1.54,1.25-2.98,1.83-4.32l-.36-.79c.43-.19.82-.42,1.16-.68.35-.26.65-.54.91-.82s.48-.56.66-.82c.18-.26.32-.48.41-.64h.29c.74,1.98,1.45,3.86,2.11,5.64.67,1.78,1.31,3.49,1.92,5.14.61,1.65,1.2,3.24,1.77,4.78s1.15,3.06,1.72,4.57c.26.74.51,1.36.73,1.84.23.49.48,1.05.77,1.67.05.1.15.26.32.5.17.24.39.48.66.73.27.25.62.47,1.02.66.41.19.88.3,1.43.32v.43h-10.46Zm-4.69-21.71c-.14.31-.35.8-.63,1.47s-.62,1.48-1.02,2.44-.85,2.04-1.34,3.24c-.49,1.21-1.02,2.52-1.6,3.92h8.92c-.41-1.08-.82-2.15-1.24-3.22-.42-1.08-.82-2.11-1.22-3.1s-.75-1.9-1.08-2.72c-.32-.82-.59-1.5-.81-2.02Z"/></g></svg>