<?xml version="1.0" encoding="UTF-8"?><svg id="Capa_2" xmlns="http://www.w3.org/2000/svg" viewBox="0 0 110.68 107.1"><defs><style>.cls-1{fill:#842671;stroke-width:0px;}</style></defs><g id="Textos"><path class="cls-1" d="m4,106.61v.45H.52v-4.93h3.38v.45H1.04v1.75h2.55v.44H1.04v1.83h2.96Z"/><path class="cls-1" d="m22.04,102.14v4.93h-.43l-3.17-4v4h-.52v-4.93h.43l3.17,4v-4h.51Z"/><path class="cls-1" d="m40.64,102.14l-2.18,4.93h-.51l-2.18-4.93h.56l1.89,4.28,1.9-4.28h.53Z"/><path class="cls-1" d="m57.08,105.75h-2.74l-.59,1.32h-.54l2.25-4.93h.51l2.25,4.93h-.55l-.59-1.32Zm-.19-.42l-1.18-2.65-1.18,2.65h2.36Z"/><path class="cls-1" d="m71.59,106.46l.2-.4c.35.34.98.6,1.63.6.92,0,1.32-.39,1.32-.87,0-1.35-3.03-.52-3.03-2.34,0-.72.56-1.35,1.82-1.35.56,0,1.13.16,1.53.44l-.18.42c-.42-.27-.91-.41-1.35-.41-.9,0-1.3.4-1.3.89,0,1.35,3.03.53,3.03,2.33,0,.72-.58,1.34-1.84,1.34-.74,0-1.46-.26-1.83-.64Z"/><path class="cls-1" d="m92.76,106.61v.45h-3.48v-4.93h3.38v.45h-2.86v1.75h2.55v.44h-2.55v1.83h2.96Z"/><path class="cls-1" d="m106.45,106.46l.2-.4c.35.34.98.6,1.63.6.92,0,1.32-.39,1.32-.87,0-1.35-3.03-.52-3.03-2.34,0-.72.56-1.35,1.82-1.35.56,0,1.13.16,1.53.44l-.18.42c-.42-.27-.91-.41-1.35-.41-.9,0-1.3.4-1.3.89,0,1.35,3.03.53,3.03,2.33,0,.72-.58,1.34-1.84,1.34-.74,0-1.46-.26-1.83-.64Z"/><polygon class="cls-1" points="50.76 1.59 20.62 35.41 55.44 68.93 70.65 47.64 55.44 62.76 27.98 35.26 50.76 1.59"/><polygon class="cls-1" points="20.62 43.08 27.46 43.98 55.44 68.93 20.62 43.08"/><polygon class="cls-1" points="76.62 46.45 90.05 32.53 54.91 0 29.97 35.71 54.91 8.16 80.1 36.01 60.01 8.93 84.56 31.01 80.1 36.01 78.11 38.49 76.62 46.45"/><polygon class="cls-1" points="76.3 39.48 65.86 67.01 66.62 56.91 76.3 39.48"/><path class="cls-1" d="m50.6,49.33s1.74-.9,4.41-.9,4.63.9,4.63.9c0,0-2.53-.23-4.63-.23s-4.41.23-4.41.23"/><path class="cls-1" d="m53.09,18.81s.19.36.55.4c.36.04,2.22,0,2.56,0s.75-.4.75-.4h-3.86Z"/><path class="cls-1" d="m53.09,24.72s.19.36.55.4c.36.04,2.22,0,2.56,0s.75-.4.75-.4h-3.86Z"/><path class="cls-1" d="m62.15,49.48c-.13,2.83-6.84,2.38-8.86,2.37-1.57-.13-5.24-.15-5.34-2.38,0-.26.04-2.97.04-3.31.09-2.81-.1-5.69.38-8.46.66-3.71,1.95-7.27,3.33-10.76l.52-1.29c.46-1.29.43-2.68.52-4.04.04-.93.06-1.86.07-2.79v-.03s.03,0,.03,0h4.37s0,.03,0,.03c.06,1.3.13,2.6.23,3.89.1,1.27.2,2.53.76,3.68.98,2.43,1.91,4.88,2.65,7.4.56,1.91,1.03,3.88,1.18,5.89.1,1.38.08,8.3.11,9.8m-1.86,0l.05-7.81c.03-1.26.02-2.52-.17-3.76-.56-3.81-1.7-7.51-2.85-11.21-.47-1.27-.48-2.65-.43-3.98.07-1.26.09-2.77.3-3.88,0,0-4.34,0-4.34,0,0,0,.03-.03.03-.03.16,2.21.44,4.47.08,6.69-1,3.2-2.08,6.42-2.76,9.7-.37,1.79-.67,3.6-.65,5.37.06,2.69.09,5.67.12,8.37v.35s0,.17,0,.17c0,.01,0-.02,0-.03,0-.04-.02-.06-.01-.05.25.2.65.3,1.1.4,1.7.32,3.59.31,5.35.27.9-.03,1.8-.1,2.65-.24.58-.11,1.11-.21,1.56-.5.02-.01.04-.03.04-.03,0,0,.02-.01,0,0,0,.02-.02.04-.03.06,0,.03-.03.09-.02.14"/><polygon class="cls-1" points="41.75 0 32.82 5.15 20.62 35.41 41.75 0"/><polygon class="cls-1" points="90.05 39.48 80.48 45.22 68 66.15 90.05 39.48"/><polygon class="cls-1" points="81.99 21.88 61.22 2.5 68.41 6.25 72.64 11.83 81.99 21.88"/><path class="cls-1" d="m9.06,96.16v-.19s.13-.01.28-.04c.15-.03.3-.07.46-.13.16-.06.3-.15.42-.27.12-.11.18-.26.18-.44,0-.11-.04-.3-.11-.56-.07-.26-.17-.58-.29-.95-.13-.37-.27-.79-.44-1.25-.17-.46-.34-.93-.53-1.43H3.96c-.19.48-.37.94-.55,1.38s-.36.88-.53,1.32c-.27.69-.4,1.17-.4,1.45,0,.16.05.3.15.41.1.11.23.2.39.27.16.07.33.12.51.15.18.03.36.06.52.09v.19H0v-.21c.33-.04.61-.13.85-.27.23-.14.37-.23.41-.29.09-.09.23-.3.44-.63.2-.33.45-.82.74-1.47.27-.6.56-1.28.89-2.04.33-.76.67-1.55,1.02-2.35.35-.81.69-1.62,1.04-2.44.34-.82.67-1.58.97-2.29l-.19-.42c.23-.1.43-.22.62-.36.18-.14.35-.29.49-.44.14-.15.26-.3.35-.44.1-.14.17-.25.22-.34h.15c.39,1.05.77,2.05,1.12,3s.69,1.86,1.02,2.73.64,1.72.94,2.54.61,1.63.91,2.43c.14.39.27.72.39.98.12.26.26.56.41.89.03.05.08.14.17.27.09.13.21.26.35.39.15.13.33.25.54.35.22.1.47.16.76.17v.23h-5.56Zm-2.49-11.54c-.08.17-.19.43-.33.78-.15.36-.33.79-.54,1.29-.22.51-.45,1.08-.71,1.72-.26.64-.54,1.34-.85,2.09h4.74c-.22-.57-.43-1.14-.66-1.71-.22-.57-.44-1.12-.65-1.65-.21-.53-.4-1.01-.57-1.45-.17-.44-.31-.8-.43-1.08Z"/><path class="cls-1" d="m27.13,96.16v-.21c.55-.03,1-.14,1.37-.34.37-.2.62-.44.74-.7.08-.16.13-.37.17-.62s.06-.5.08-.75c.02-.84.04-1.64.04-2.4v-7.75c-.42.94-.8,1.8-1.15,2.59-.35.79-.69,1.56-1.04,2.3-.34.75-.69,1.51-1.04,2.29-.35.78-.73,1.64-1.15,2.58-.06.13-.15.33-.27.6-.11.27-.23.55-.34.84-.11.29-.22.55-.32.78-.1.23-.16.39-.19.47h-.11c-.41-.94-.81-1.87-1.21-2.8-.4-.93-.79-1.82-1.17-2.67-.38-.86-.74-1.66-1.07-2.41-.33-.75-.63-1.42-.89-2s-.49-1.07-.66-1.47c-.17-.39-.29-.66-.35-.8,0,.84,0,1.58,0,2.22,0,.64-.01,1.28-.02,1.9,0,.63,0,1.29,0,1.99v2.44c0,.6.02,1.11.06,1.55.04.44.13.81.29,1.1s.38.53.7.7c.31.17.74.29,1.28.37v.19h-4.97v-.19c.44-.09.81-.22,1.09-.39.28-.17.5-.41.67-.71s.29-.68.36-1.13c.08-.45.12-1,.13-1.65.03-.55.04-1.19.06-1.93.01-.74.02-1.54.02-2.39v-2.4c0-.25,0-.56-.02-.93-.01-.36-.09-.64-.23-.87-.14-.22-.3-.4-.49-.52-.19-.13-.39-.22-.61-.28-.22-.06-.4-.1-.55-.12v-.19h4.06l4.55,10.36c.56-1.21,1.1-2.41,1.64-3.6.53-1.19,1.01-2.27,1.44-3.24.43-.96.77-1.77,1.05-2.41.27-.64.43-1.01.47-1.11h4.06v.19c-.52.01-.92.12-1.19.32-.27.2-.46.44-.56.72-.08.22-.13.55-.15,1.01s-.04.91-.06,1.35c-.01.61-.02,1.2-.02,1.77v3.79c0,.67,0,1.38.02,2.13,0,.24.02.49.05.73.03.25.09.44.16.58.01.03.06.09.14.18.08.1.2.2.35.3.15.11.34.2.57.29.23.08.5.13.8.14v.19h-6.53Z"/><path class="cls-1" d="m44.04,96.16v-.19s.13-.01.28-.04c.15-.03.3-.07.46-.13.16-.06.3-.15.42-.27.12-.11.18-.26.18-.44,0-.11-.04-.3-.11-.56-.07-.26-.17-.58-.29-.95-.13-.37-.27-.79-.44-1.25-.17-.46-.34-.93-.53-1.43h-5.06c-.19.48-.37.94-.55,1.38s-.36.88-.53,1.32c-.27.69-.4,1.17-.4,1.45,0,.16.05.3.15.41.1.11.23.2.39.27.16.07.33.12.51.15.18.03.36.06.52.09v.19h-4.06v-.21c.33-.04.61-.13.85-.27.23-.14.37-.23.41-.29.09-.09.23-.3.44-.63.2-.33.45-.82.74-1.47.27-.6.56-1.28.89-2.04.33-.76.67-1.55,1.02-2.35.35-.81.69-1.62,1.04-2.44.34-.82.67-1.58.97-2.29l-.19-.42c.23-.1.43-.22.62-.36.18-.14.35-.29.49-.44.14-.15.26-.3.35-.44.1-.14.17-.25.22-.34h.15c.39,1.05.77,2.05,1.12,3s.69,1.86,1.02,2.73.64,1.72.94,2.54.61,1.63.91,2.43c.14.39.27.72.39.98.12.26.26.56.41.89.03.05.08.14.17.27.09.13.21.26.35.39.15.13.33.25.54.35.22.1.47.16.76.17v.23h-5.56Zm-2.49-11.54c-.08.17-.19.43-.33.78-.15.36-.33.79-.54,1.29-.22.51-.45,1.08-.71,1.72-.26.64-.54,1.34-.85,2.09h4.74c-.22-.57-.43-1.14-.66-1.71-.22-.57-.44-1.12-.65-1.65-.21-.53-.4-1.01-.57-1.45-.17-.44-.31-.8-.43-1.08Z"/><path class="cls-1" d="m62.72,86.04c-.1-.23-.22-.47-.36-.71-.14-.25-.28-.48-.43-.7-.15-.22-.29-.42-.43-.6-.14-.18-.26-.32-.36-.41-.27-.25-.56-.42-.87-.5-.31-.08-.71-.13-1.19-.14-.24,0-.45,0-.63,0s-.36,0-.53,0h-1.26c0,.32,0,.75,0,1.29,0,.55,0,1.12,0,1.71v7.44c0,.37,0,.72.03,1.06.02.34.08.57.18.71.19.28.46.47.81.57s.66.18.94.23v.19h-6.19v-.19c.33-.04.65-.1.95-.19.3-.09.6-.3.9-.63.06-.06.11-.17.14-.31.03-.15.06-.31.08-.5.02-.18.03-.38.04-.6s0-.43,0-.63c0-.18,0-.41,0-.7,0-.29.01-.62.02-.97,0-.36,0-.72,0-1.1v-7.39h-1.26c-.17,0-.34,0-.52,0-.18,0-.4,0-.64,0-.48.01-.88.07-1.19.17-.31.1-.6.28-.87.53-.1.09-.22.22-.35.4-.13.18-.27.37-.42.58-.15.21-.29.43-.42.68s-.24.48-.31.7l-.17-.06.57-3.62c.29.06.56.11.81.15.25.04.61.06,1.08.08.48.01.91.02,1.29.03.38,0,.75,0,1.1,0h3.62c.38,0,.75,0,1.1,0,.36,0,.72-.01,1.1-.02.38,0,.81,0,1.29,0,.42-.01.76-.05,1.04-.1.27-.06.56-.13.85-.22l.61,3.71-.17.06Z"/><path class="cls-1" d="m64.18,96.16v-.19c.32-.05.61-.13.89-.25.27-.11.5-.28.69-.5.06-.08.11-.18.14-.32.03-.14.06-.3.08-.5.02-.19.03-.39.04-.6,0-.21,0-.42,0-.62,0-.18,0-.42,0-.72,0-.3.01-.64.02-1,0-.36,0-.73,0-1.11v-5.5c0-.23,0-.44-.03-.64-.02-.2-.05-.37-.09-.53-.04-.16-.1-.28-.17-.37-.18-.22-.4-.37-.66-.47-.26-.09-.56-.16-.89-.2v-.19h5.69v.19c-.27.04-.55.11-.86.21-.3.1-.54.3-.7.61-.11.22-.17.49-.18.82,0,.33-.02.64-.03.93,0,.32,0,.63,0,.94,0,.31,0,.63,0,.94v6.38c0,.37,0,.72.02,1.07.01.34.07.58.17.72.15.22.39.38.72.49.33.11.63.18.89.21v.19h-5.77Z"/><path class="cls-1" d="m81.29,94.05c-.25.48-.59.89-1.03,1.24s-.96.6-1.57.76c-.61.16-1.28.25-2,.25-.62,0-1.16-.04-1.6-.11-.44-.08-.81-.17-1.1-.28-.29-.11-.51-.21-.66-.29-.15-.09-.24-.13-.28-.13s-.12.08-.25.23c-.13.15-.24.3-.34.44h-.17l-.06-3.79h.19c.11.34.26.68.44,1,.18.32.37.63.58.91s.43.54.67.75c.23.22.46.38.68.5.22.11.5.23.86.34.36.11.7.17,1.03.17.94,0,1.7-.26,2.28-.77.58-.51.88-1.21.88-2.09,0-.36-.06-.67-.17-.93-.11-.27-.27-.5-.47-.69-.2-.2-.43-.36-.7-.5-.27-.14-.55-.27-.86-.38-.3-.11-.57-.21-.8-.29-.23-.08-.44-.15-.64-.22-.2-.07-.4-.14-.61-.21-.21-.07-.46-.16-.75-.28-.33-.13-.65-.3-.95-.52-.3-.22-.57-.48-.8-.78-.23-.3-.41-.63-.55-.99-.14-.36-.21-.75-.21-1.15,0-.69.12-1.28.38-1.77.25-.5.59-.91,1.01-1.24.42-.33.91-.57,1.46-.73.55-.16,1.13-.24,1.74-.24.57,0,1.06.05,1.47.14.41.1.74.2,1,.31.26.11.46.22.59.31.13.09.21.14.22.14.04,0,.12-.08.24-.23.12-.15.23-.3.33-.46h.21v3.52h-.21c-.15-.42-.35-.83-.59-1.25-.24-.41-.52-.78-.84-1.1-.32-.32-.68-.59-1.09-.79-.41-.2-.86-.3-1.35-.3-.39,0-.76.06-1.11.17-.35.11-.65.29-.91.51-.26.23-.46.51-.61.85-.15.34-.22.72-.22,1.15,0,.67.2,1.21.61,1.62.4.41.93.73,1.58.97.25.1.49.19.71.27.22.08.44.15.66.22.22.07.43.14.66.22.22.08.45.16.69.25.86.32,1.53.78,2,1.38.47.6.71,1.35.71,2.26,0,.61-.12,1.16-.37,1.64Z"/><path class="cls-1" d="m97.22,86.04c-.1-.23-.22-.47-.36-.71-.14-.25-.28-.48-.43-.7-.15-.22-.29-.42-.43-.6-.14-.18-.26-.32-.36-.41-.27-.25-.56-.42-.87-.5-.31-.08-.71-.13-1.19-.14-.24,0-.45,0-.63,0s-.36,0-.53,0h-1.26c0,.32,0,.75,0,1.29,0,.55,0,1.12,0,1.71v7.44c0,.37,0,.72.03,1.06.02.34.08.57.18.71.19.28.46.47.81.57.35.1.66.18.94.23v.19h-6.19v-.19c.33-.04.65-.1.95-.19.3-.09.6-.3.9-.63.06-.06.11-.17.14-.31.03-.15.06-.31.08-.5.02-.18.03-.38.04-.6s0-.43,0-.63c0-.18,0-.41,0-.7s.01-.62.02-.97c0-.36,0-.72,0-1.1v-7.39h-1.26c-.17,0-.34,0-.52,0-.18,0-.4,0-.64,0-.48.01-.88.07-1.19.17-.31.1-.6.28-.87.53-.1.09-.22.22-.35.4-.13.18-.27.37-.42.58-.15.21-.29.43-.42.68-.13.24-.24.48-.31.7l-.17-.06.57-3.62c.29.06.56.11.81.15.25.04.61.06,1.08.08.48.01.91.02,1.29.03s.75,0,1.1,0h3.62c.38,0,.75,0,1.1,0s.72-.01,1.1-.02.81,0,1.29,0c.42-.01.76-.05,1.04-.1.27-.06.55-.13.85-.22l.61,3.71-.17.06Z"/><path class="cls-1" d="m105.12,96.16v-.19s.13-.01.28-.04c.15-.03.3-.07.46-.13.16-.06.3-.15.42-.27.12-.11.18-.26.18-.44,0-.11-.04-.3-.1-.56-.07-.26-.17-.58-.3-.95-.13-.37-.27-.79-.44-1.25-.16-.46-.34-.93-.53-1.43h-5.06c-.19.48-.37.94-.55,1.38-.18.44-.36.88-.53,1.32-.27.69-.4,1.17-.4,1.45,0,.16.05.3.15.41s.23.2.39.27c.16.07.33.12.51.15.18.03.36.06.52.09v.19h-4.06v-.21c.33-.04.61-.13.85-.27.23-.14.37-.23.41-.29.09-.09.23-.3.44-.63.2-.33.45-.82.74-1.47.27-.6.56-1.28.89-2.04.33-.76.67-1.55,1.02-2.35.35-.81.7-1.62,1.04-2.44.34-.82.67-1.58.97-2.29l-.19-.42c.23-.1.43-.22.62-.36.18-.14.35-.29.49-.44s.26-.3.35-.44c.09-.14.17-.25.22-.34h.15c.39,1.05.77,2.05,1.12,3,.35.95.69,1.86,1.02,2.73.32.88.64,1.72.94,2.54s.61,1.63.91,2.43c.14.39.27.72.39.98.12.26.26.56.41.89.02.05.08.14.17.27.09.13.21.26.35.39.15.13.33.25.54.35.22.1.47.16.76.17v.23h-5.56Zm-2.49-11.54c-.08.17-.19.43-.33.78s-.33.79-.54,1.29-.45,1.08-.71,1.72c-.26.64-.54,1.34-.85,2.09h4.74c-.22-.57-.43-1.14-.66-1.71-.22-.57-.44-1.12-.65-1.65s-.4-1.01-.57-1.45c-.17-.44-.31-.8-.43-1.08Z"/></g></svg>