<?xml version="1.0" encoding="utf-8"?>
<!-- Generator: Adobe Illustrator 28.0.0, SVG Export Plug-In . SVG Version: 6.00 Build 0)  -->
<svg version="1.1" id="Capa_2_00000043419539859959032540000001400790367572965775_"
	 xmlns="http://www.w3.org/2000/svg" xmlns:xlink="http://www.w3.org/1999/xlink" x="0px" y="0px" viewBox="0 0 176.1 81.7"
	 style="enable-background:new 0 0 176.1 81.7;" xml:space="preserve">
<style type="text/css">
	.st0{fill:#2C2A29;}
	.st1{fill:#E26C2E;}
</style>
<g>
	<g>
		<g>
			<g>
				<path class="st0" d="M29.3,29.2h-4.8v-2.8h13v2.8h-4.8v12.1h-3.5L29.3,29.2L29.3,29.2z"/>
				<path class="st0" d="M48.9,41.3L46,37.1h-0.2h-3v4.2h-3.5V26.4h6.5c4,0,6.5,2.1,6.5,5.4c0,2.2-1.1,3.9-3.1,4.7l3.3,4.8H48.9z
					 M45.7,29.2h-2.8v5.2h2.8c2.1,0,3.2-1,3.2-2.6C48.9,30.1,47.8,29.2,45.7,29.2z"/>
				<path class="st0" d="M66.7,38.5v2.8H55.1V26.4h11.3v2.8h-7.8v3.2h6.9v2.7h-6.9v3.5L66.7,38.5L66.7,38.5z"/>
				<path class="st0" d="M67.4,39.3l1.9-2.3c0.8,1.1,1.7,1.6,2.8,1.6c1.4,0,2.1-0.8,2.1-2.5V29H69v-2.6h8.7v9.7
					c0,3.7-1.9,5.5-5.4,5.5C70.2,41.5,68.5,40.8,67.4,39.3z"/>
				<path class="st0" d="M80.1,33.8c0-4.4,3.5-7.7,8.2-7.7s8.2,3.3,8.2,7.7s-3.5,7.7-8.2,7.7S80.1,38.2,80.1,33.8z M92.9,33.8
					c0-2.8-2-4.8-4.7-4.8s-4.7,1.9-4.7,4.8c0,2.9,2,4.8,4.7,4.8S92.9,36.6,92.9,33.8z"/>
			</g>
			<g>
				<path class="st0" d="M12.9,54.9c0,3.3-2.5,5.4-6.5,5.4h-3v4.1H0V49.5h6.5C10.4,49.5,12.9,51.6,12.9,54.9z M9.4,54.9
					c0-1.6-1.1-2.6-3.2-2.6H3.5v5.2h2.8C8.4,57.5,9.4,56.5,9.4,54.9z"/>
				<path class="st0" d="M24.5,61.2h-6.9l-1.3,3.2h-3.5l6.6-14.9h3.4l6.6,14.9h-3.6L24.5,61.2z M23.4,58.6L21,52.9l-2.4,5.7H23.4z"
					/>
				<path class="st0" d="M31,49.5h6.8c4.9,0,8.2,2.9,8.2,7.5s-3.3,7.4-8.2,7.4H31V49.5z M37.6,61.6c3,0,4.9-1.8,4.9-4.6
					c0-2.9-1.9-4.6-4.9-4.6h-3.2v9.2H37.6z"/>
				<path class="st0" d="M48.7,49.5h3.5v14.9h-3.5V49.5z"/>
				<path class="st0" d="M55.7,49.5h3.5v12.1h7.5v2.8h-11V49.5z"/>
				<path class="st0" d="M68.6,49.5h3.5v12.1h7.5v2.8h-11V49.5z"/>
				<path class="st0" d="M91.5,61.2h-6.9l-1.4,3.2h-3.5l6.6-14.9h3.4l6.7,14.9h-3.6L91.5,61.2z M90.4,58.6L88,52.9l-2.4,5.7H90.4z"
					/>
			</g>
		</g>
		<g>
			<path class="st1" d="M7.6,79.1h-5l-1.1,2.4h-1l4.1-9h0.9l4.1,9h-1L7.6,79.1z M7.2,78.3L5,73.4l-2.2,4.9H7.2z"/>
			<path class="st1" d="M21.3,79.1c0,1.5-1.1,2.4-3.4,2.4h-4.2v-9h3.9c2,0,3.2,0.9,3.2,2.3c0,1-0.6,1.7-1.4,2.1
				C20.6,77.1,21.3,77.9,21.3,79.1z M14.7,73.3v3.3h2.9c1.4,0,2.3-0.6,2.3-1.6c0-1.1-0.8-1.6-2.3-1.6h-2.9V73.3z M20.4,79
				c0-1.2-0.9-1.7-2.5-1.7h-3.2v3.4h3.2C19.5,80.8,20.4,80.2,20.4,79z"/>
			<path class="st1" d="M25.3,77c0-2.6,2-4.6,4.8-4.6c2.7,0,4.7,1.9,4.7,4.6s-2,4.6-4.7,4.6C27.3,81.6,25.3,79.7,25.3,77z M33.8,77
				c0-2.2-1.6-3.7-3.8-3.7s-3.8,1.6-3.8,3.7c0,2.2,1.6,3.7,3.8,3.7C32.2,80.8,33.8,79.2,33.8,77z"/>
			<path class="st1" d="M45.9,77h0.9v3.4c-0.9,0.8-2.1,1.1-3.3,1.1c-2.7,0-4.8-1.9-4.8-4.6s2-4.6,4.8-4.6c1.4,0,2.6,0.4,3.4,1.3
				l-0.6,0.6c-0.8-0.7-1.7-1.1-2.7-1.1c-2.2,0-3.9,1.6-3.9,3.7s1.6,3.7,3.9,3.7c0.9,0,1.7-0.2,2.4-0.7V77H45.9z"/>
			<path class="st1" d="M57.7,79.1h-5l-1.1,2.4h-1l4.1-9h0.9l4.1,9h-1L57.7,79.1z M57.4,78.3l-2.2-4.9L53,78.3H57.4z"/>
			<path class="st1" d="M63.9,72.5h3.7c2.9,0,4.8,1.9,4.8,4.5s-1.9,4.5-4.8,4.5h-3.7C63.9,81.5,63.9,72.5,63.9,72.5z M67.5,80.7
				c2.4,0,4-1.5,4-3.7s-1.5-3.7-4-3.7h-2.7v7.4C64.8,80.7,67.5,80.7,67.5,80.7z"/>
			<path class="st1" d="M76.3,77c0-2.6,2-4.6,4.8-4.6c2.7,0,4.7,1.9,4.7,4.6s-2,4.6-4.7,4.6C78.4,81.6,76.3,79.7,76.3,77z M84.9,77
				c0-2.2-1.6-3.7-3.8-3.7c-2.2,0-3.8,1.6-3.8,3.7c0,2.2,1.6,3.7,3.8,3.7C83.3,80.8,84.9,79.2,84.9,77z"/>
			<path class="st1" d="M89.7,80.4l0.4-0.7c0.6,0.6,1.8,1.1,3,1.1c1.7,0,2.4-0.7,2.4-1.6c0-2.5-5.6-1-5.6-4.3c0-1.3,1-2.5,3.3-2.5
				c1,0,2.1,0.3,2.8,0.8L95.7,74c-0.8-0.5-1.7-0.7-2.5-0.7c-1.7,0-2.4,0.7-2.4,1.6c0,2.5,5.6,1,5.6,4.3c0,1.3-1.1,2.5-3.4,2.5
				C91.7,81.6,90.4,81.1,89.7,80.4z"/>
		</g>
	</g>
	<g>
		<path class="st1" d="M155.9,9.5c-7.1-0.1-14.2,0-21.4,0l0,0c-9.4,0-13-0.8-14.9-9.5c-0.9,0-2.4,0-2.4,0v18.1h4.6
			c0.9,0,1.8,0,2.7,0h10l0,0c7,0,14.1,0,21.1,0.1c8.6,0.1,14.2,9.2,10.8,17.1c-2,4.8-5.8,7.5-10.9,7.5c-1.5,0-3,0-4.6,0
			c0,3,0,5.8,0,8.8c1.4,0,2.6,0,3.8,0c11.6,0,20.6-8.5,21.3-20C176.7,20.3,167.8,9.6,155.9,9.5z"/>
		<rect x="117.2" y="42.9" class="st1" width="8.8" height="24.3"/>
		<path class="st0" d="M134,34.9c0,0,0,14.4,0,28.5c-0.4,9.4-2.9,13.3-12.5,15.4c0,1.1,0,2.7,0,2.7h12.6h8.5h12.5c0,0,0-1.7,0-2.7
			c-9.6-2.2-12.5-6-12.5-15.4c0-0.8,0-28.5,0-28.5h16.9v-8.8H117v8.8H134z"/>
	</g>
</g>
</svg>
