<?xml version="1.0" encoding="UTF-8"?><svg id="Capa_2" xmlns="http://www.w3.org/2000/svg" viewBox="0 0 176.08 90.86"><defs><style>.cls-1{fill:#2c2a29;}.cls-1,.cls-2{stroke-width:0px;}.cls-2{fill:#e26c2e;}</style></defs><g id="Textos"><path class="cls-1" d="m26.41,32.25h-4.38v-2.58h11.92v2.58h-4.38v11.1h-3.17v-11.1Z"/><path class="cls-1" d="m44.38,43.35l-2.64-3.81h-2.91v3.81h-3.17v-13.68h5.92c3.66,0,5.94,1.9,5.94,4.97,0,2.05-1.04,3.56-2.82,4.32l3.07,4.4h-3.4Zm-2.97-11.1h-2.58v4.77h2.58c1.94,0,2.91-.9,2.91-2.39s-.98-2.39-2.91-2.39Z"/><path class="cls-1" d="m60.62,40.81v2.54h-10.6v-13.68h10.34v2.54h-7.19v2.97h6.35v2.46h-6.35v3.17h7.45Z"/><path class="cls-1" d="m61.2,41.59l1.76-2.11c.74,1,1.56,1.51,2.54,1.51,1.27,0,1.94-.76,1.94-2.27v-6.51h-4.81v-2.54h7.96v8.88c0,3.38-1.7,5.04-4.93,5.04-1.84,0-3.46-.7-4.46-1.99Z"/><path class="cls-1" d="m72.85,36.51c0-4.07,3.17-7.08,7.49-7.08s7.49,2.99,7.49,7.08-3.19,7.08-7.49,7.08-7.49-3.01-7.49-7.08Zm11.77,0c0-2.6-1.84-4.38-4.28-4.38s-4.28,1.78-4.28,4.38,1.84,4.38,4.28,4.38,4.28-1.78,4.28-4.38Z"/><path class="cls-1" d="m12.42,58.92c0,3.05-2.29,4.95-5.94,4.95h-2.76v3.77H.55v-13.68h5.92c3.66,0,5.94,1.9,5.94,4.97Zm-3.21,0c0-1.51-.98-2.39-2.91-2.39h-2.58v4.75h2.58c1.94,0,2.91-.88,2.91-2.37Z"/><path class="cls-1" d="m22.99,64.7h-6.35l-1.21,2.93h-3.25l6.1-13.68h3.13l6.12,13.68h-3.32l-1.21-2.93Zm-1-2.4l-2.17-5.24-2.17,5.24h4.34Z"/><path class="cls-1" d="m28.95,53.95h6.22c4.48,0,7.55,2.7,7.55,6.84s-3.07,6.84-7.55,6.84h-6.22v-13.68Zm6.06,11.08c2.72,0,4.5-1.62,4.5-4.24s-1.78-4.24-4.5-4.24h-2.89v8.48h2.89Z"/><path class="cls-1" d="m45.1,53.95h3.17v13.68h-3.17v-13.68Z"/><path class="cls-1" d="m51.51,53.95h3.17v11.1h6.86v2.58h-10.03v-13.68Z"/><path class="cls-1" d="m63.31,53.95h3.17v11.1h6.86v2.58h-10.03v-13.68Z"/><path class="cls-1" d="m84.25,64.7h-6.35l-1.21,2.93h-3.25l6.1-13.68h3.13l6.12,13.68h-3.32l-1.21-2.93Zm-1-2.4l-2.17-5.24-2.17,5.24h4.34Z"/><path class="cls-2" d="m6.53,88.08H1.91l-.99,2.22h-.91l3.79-8.29h.86l3.79,8.29h-.92l-1-2.22Zm-.32-.71l-1.99-4.45-1.99,4.45h3.98Z"/><path class="cls-2" d="m19.12,88.08c0,1.41-1.04,2.22-3.12,2.22h-3.81v-8.29h3.58c1.85,0,2.91.78,2.91,2.13,0,.95-.51,1.58-1.27,1.88,1.07.24,1.71.94,1.71,2.06Zm-6.05-5.35v3.01h2.64c1.33,0,2.1-.51,2.1-1.5s-.77-1.5-2.1-1.5h-2.64Zm5.18,5.28c0-1.08-.79-1.55-2.25-1.55h-2.93v3.12h2.93c1.46,0,2.25-.47,2.25-1.56Z"/><path class="cls-2" d="m22.76,86.15c0-2.42,1.85-4.22,4.36-4.22s4.35,1.79,4.35,4.22-1.86,4.22-4.35,4.22-4.36-1.8-4.36-4.22Zm7.83,0c0-1.98-1.48-3.44-3.47-3.44s-3.49,1.46-3.49,3.44,1.49,3.44,3.49,3.44,3.47-1.46,3.47-3.44Z"/><path class="cls-2" d="m41.64,86.15h.84v3.16c-.78.7-1.9,1.05-3.04,1.05-2.52,0-4.37-1.79-4.37-4.22s1.85-4.22,4.38-4.22c1.26,0,2.35.4,3.08,1.2l-.54.56c-.7-.69-1.53-.97-2.5-.97-2.05,0-3.55,1.46-3.55,3.44s1.5,3.44,3.54,3.44c.79,0,1.53-.18,2.17-.64v-2.8Z"/><path class="cls-2" d="m52.53,88.08h-4.62l-.99,2.22h-.91l3.79-8.29h.86l3.79,8.29h-.92l-1-2.22Zm-.32-.71l-1.99-4.45-1.99,4.45h3.98Z"/><path class="cls-2" d="m58.19,82h3.38c2.65,0,4.44,1.71,4.44,4.15s-1.79,4.15-4.44,4.15h-3.38v-8.29Zm3.33,7.53c2.2,0,3.62-1.4,3.62-3.39s-1.42-3.39-3.62-3.39h-2.45v6.78h2.45Z"/><path class="cls-2" d="m69.61,86.15c0-2.42,1.85-4.22,4.36-4.22s4.35,1.79,4.35,4.22-1.86,4.22-4.35,4.22-4.36-1.8-4.36-4.22Zm7.83,0c0-1.98-1.48-3.44-3.47-3.44s-3.49,1.46-3.49,3.44,1.49,3.44,3.49,3.44,3.47-1.46,3.47-3.44Z"/><path class="cls-2" d="m81.86,89.28l.34-.68c.59.58,1.65,1.01,2.74,1.01,1.55,0,2.23-.65,2.23-1.47,0-2.27-5.11-.88-5.11-3.94,0-1.22.95-2.27,3.06-2.27.94,0,1.91.27,2.57.73l-.3.7c-.71-.46-1.54-.69-2.27-.69-1.52,0-2.19.68-2.19,1.5,0,2.27,5.11.9,5.11,3.92,0,1.22-.97,2.26-3.09,2.26-1.24,0-2.46-.44-3.08-1.08Z"/><path class="cls-2" d="m153.61,10.55c-7.93-.06-15.86.02-23.8,0h0c-10.44,0-14.44-.86-16.63-10.55h-2.58v20.16h4.99c1.01,0,2.02,0,3.04,0h11.16v-.02c7.84,0,15.69,0,23.53.14,9.54.16,15.81,10.25,12.06,19.05-2.27,5.33-6.51,7.97-12.19,8.38-1.68.12-3.38.02-5.13.02v9.79c1.54,0,2.91,0,4.27,0,12.87-.01,22.95-9.45,23.71-22.27.76-12.64-9.21-24.61-22.43-24.71Z"/><path class="cls-2" d="m119.94,75.03v-1.82s0-.04,0-.07c0-.01,0-.03,0-.04v-25.11h-9.46v1.44h0s0,25.6,0,25.6h9.46Z"/><path class="cls-1" d="m138.9,39.02h18.2v-9.56l-46.5-.02v9.59h18.68v31.59c-.41,10.51-3.64,14.78-14.3,17.2v3.06h38.3v-3.06c-10.66-2.42-13.9-6.68-14.3-17.2-.03-.8-.08-31.59-.08-31.59Z"/></g></svg>