<?xml version="1.0" encoding="utf-8"?>
<!-- Generator: Adobe Illustrator 28.0.0, SVG Export Plug-In . SVG Version: 6.00 Build 0)  -->
<svg version="1.1" id="Capa_2_00000043419539859959032540000001400790367572965775_"
	 xmlns="http://www.w3.org/2000/svg" xmlns:xlink="http://www.w3.org/1999/xlink" x="0px" y="0px" viewBox="0 0 176.1 90.9"
	 style="enable-background:new 0 0 176.1 90.9;" xml:space="preserve">
<style type="text/css">
	.st0{fill:#2C2A29;}
	.st1{fill:#E26C2E;}
</style>
<g>
	<g>
		<g>
			<g>
				<path class="st0" d="M29.3,33.8h-4.8V31h13v2.8h-4.8v12.1h-3.5V33.8z"/>
				<path class="st0" d="M48.9,45.9l-2.9-4.2h-0.2h-3v4.2h-3.5V31h6.5c4,0,6.5,2.1,6.5,5.4c0,2.2-1.1,3.9-3.1,4.7l3.3,4.8H48.9z
					 M45.7,33.8h-2.8V39h2.8c2.1,0,3.2-1,3.2-2.6C48.9,34.7,47.8,33.8,45.7,33.8z"/>
				<path class="st0" d="M66.7,43.1v2.8H55.1V31h11.3v2.8h-7.8V37h6.9v2.7h-6.9v3.5H66.7z"/>
				<path class="st0" d="M67.4,43.9l1.9-2.3c0.8,1.1,1.7,1.6,2.8,1.6c1.4,0,2.1-0.8,2.1-2.5v-7.1h-5.2V31h8.7v9.7
					c0,3.7-1.9,5.5-5.4,5.5C70.2,46.1,68.5,45.4,67.4,43.9z"/>
				<path class="st0" d="M80.1,38.4c0-4.4,3.5-7.7,8.2-7.7c4.7,0,8.2,3.3,8.2,7.7s-3.5,7.7-8.2,7.7C83.6,46.1,80.1,42.8,80.1,38.4z
					 M92.9,38.4c0-2.8-2-4.8-4.7-4.8c-2.7,0-4.7,1.9-4.7,4.8s2,4.8,4.7,4.8C90.9,43.2,92.9,41.2,92.9,38.4z"/>
			</g>
			<g>
				<path class="st0" d="M12.9,59.5c0,3.3-2.5,5.4-6.5,5.4h-3V69H0V54.1h6.5C10.4,54.1,12.9,56.2,12.9,59.5z M9.4,59.5
					c0-1.6-1.1-2.6-3.2-2.6H3.5v5.2h2.8C8.4,62.1,9.4,61.1,9.4,59.5z"/>
				<path class="st0" d="M24.5,65.8h-6.9L16.3,69h-3.5l6.6-14.9h3.4L29.4,69h-3.6L24.5,65.8z M23.4,63.2l-2.4-5.7l-2.4,5.7H23.4z"/>
				<path class="st0" d="M31,54.1h6.8c4.9,0,8.2,2.9,8.2,7.5S42.7,69,37.8,69H31V54.1z M37.6,66.2c3,0,4.9-1.8,4.9-4.6
					c0-2.9-1.9-4.6-4.9-4.6h-3.2v9.2H37.6z"/>
				<path class="st0" d="M48.7,54.1h3.5V69h-3.5V54.1z"/>
				<path class="st0" d="M55.7,54.1h3.5v12.1h7.5V69H55.7V54.1z"/>
				<path class="st0" d="M68.6,54.1h3.5v12.1h7.5V69H68.6V54.1z"/>
				<path class="st0" d="M91.5,65.8h-6.9L83.2,69h-3.5l6.6-14.9h3.4L96.4,69h-3.6L91.5,65.8z M90.4,63.2L88,57.5l-2.4,5.7H90.4z"/>
			</g>
		</g>
		<g>
			<path class="st1" d="M7.6,83.7h-5l-1.1,2.4h-1l4.1-9h0.9l4.1,9h-1L7.6,83.7z M7.2,82.9l-2.2-4.9l-2.2,4.9H7.2z"/>
			<path class="st1" d="M21.3,83.7c0,1.5-1.1,2.4-3.4,2.4h-4.2v-9h3.9c2,0,3.2,0.9,3.2,2.3c0,1-0.6,1.7-1.4,2.1
				C20.6,81.7,21.3,82.5,21.3,83.7z M14.7,77.9v3.3h2.9c1.4,0,2.3-0.6,2.3-1.6c0-1.1-0.8-1.6-2.3-1.6H14.7z M20.4,83.6
				c0-1.2-0.9-1.7-2.5-1.7h-3.2v3.4h3.2C19.5,85.4,20.4,84.8,20.4,83.6z"/>
			<path class="st1" d="M25.3,81.6c0-2.6,2-4.6,4.8-4.6c2.7,0,4.7,1.9,4.7,4.6s-2,4.6-4.7,4.6C27.3,86.2,25.3,84.3,25.3,81.6z
				 M33.8,81.6c0-2.2-1.6-3.7-3.8-3.7c-2.2,0-3.8,1.6-3.8,3.7c0,2.2,1.6,3.7,3.8,3.7C32.2,85.4,33.8,83.8,33.8,81.6z"/>
			<path class="st1" d="M45.9,81.6h0.9v3.4c-0.9,0.8-2.1,1.1-3.3,1.1c-2.7,0-4.8-1.9-4.8-4.6s2-4.6,4.8-4.6c1.4,0,2.6,0.4,3.4,1.3
				l-0.6,0.6c-0.8-0.7-1.7-1.1-2.7-1.1c-2.2,0-3.9,1.6-3.9,3.7c0,2.1,1.6,3.7,3.9,3.7c0.9,0,1.7-0.2,2.4-0.7V81.6z"/>
			<path class="st1" d="M57.7,83.7h-5l-1.1,2.4h-1l4.1-9h0.9l4.1,9h-1L57.7,83.7z M57.4,82.9l-2.2-4.9L53,82.9H57.4z"/>
			<path class="st1" d="M63.9,77.1h3.7c2.9,0,4.8,1.9,4.8,4.5s-1.9,4.5-4.8,4.5h-3.7V77.1z M67.5,85.3c2.4,0,4-1.5,4-3.7
				c0-2.2-1.5-3.7-4-3.7h-2.7v7.4H67.5z"/>
			<path class="st1" d="M76.3,81.6c0-2.6,2-4.6,4.8-4.6c2.7,0,4.7,1.9,4.7,4.6s-2,4.6-4.7,4.6C78.4,86.2,76.3,84.3,76.3,81.6z
				 M84.9,81.6c0-2.2-1.6-3.7-3.8-3.7c-2.2,0-3.8,1.6-3.8,3.7c0,2.2,1.6,3.7,3.8,3.7C83.3,85.4,84.9,83.8,84.9,81.6z"/>
			<path class="st1" d="M89.7,85l0.4-0.7c0.6,0.6,1.8,1.1,3,1.1c1.7,0,2.4-0.7,2.4-1.6c0-2.5-5.6-1-5.6-4.3c0-1.3,1-2.5,3.3-2.5
				c1,0,2.1,0.3,2.8,0.8l-0.3,0.8c-0.8-0.5-1.7-0.7-2.5-0.7c-1.7,0-2.4,0.7-2.4,1.6c0,2.5,5.6,1,5.6,4.3c0,1.3-1.1,2.5-3.4,2.5
				C91.7,86.2,90.4,85.7,89.7,85z"/>
		</g>
	</g>
	<g>
		<path class="st1" d="M155.9,14.1c-7.1-0.1-14.2,0-21.4,0v0c-9.4,0-13-0.8-14.9-9.5c-0.9,0-2.4,0-2.4,0v18.1h4.6c0.9,0,1.8,0,2.7,0
			h10l0,0c7,0,14.1,0,21.1,0.1c8.6,0.1,14.2,9.2,10.8,17.1c-2,4.8-5.8,7.5-10.9,7.5c-1.5,0-3,0-4.6,0c0,3,0,5.8,0,8.8
			c1.4,0,2.6,0,3.8,0c11.6,0,20.6-8.5,21.3-20C176.7,24.9,167.8,14.2,155.9,14.1z"/>
		<rect x="117.2" y="47.5" class="st1" width="8.8" height="24.3"/>
		<path class="st0" d="M134,39.5c0,0,0,14.4,0,28.5c-0.4,9.4-2.9,13.3-12.5,15.4c0,1.1,0,2.7,0,2.7h12.6h8.5h12.5c0,0,0-1.7,0-2.7
			c-9.6-2.2-12.5-6-12.5-15.4c0-0.8,0-28.5,0-28.5h16.9v-8.8l-42.5,0v8.8H134z"/>
	</g>
</g>
</svg>
