<?xml version="1.0" encoding="utf-8"?>
<!-- Generator: Adobe Illustrator 28.0.0, SVG Export Plug-In . SVG Version: 6.00 Build 0)  -->
<svg version="1.1" id="Capa_2_00000147930167675776111880000014565684205440253101_"
	 xmlns="http://www.w3.org/2000/svg" xmlns:xlink="http://www.w3.org/1999/xlink" x="0px" y="0px" viewBox="0 0 228.8 219.9"
	 style="enable-background:new 0 0 228.8 219.9;" xml:space="preserve">
<style type="text/css">
	.st0{fill:#FFFFFF;}
	.st1{fill:#E26C2E;}
</style>
<g>
	<g>
		<path class="st0" d="M6.2,182.1H0v-3.6h16.8v3.6h-6.2v15.6H6.2V182.1z"/>
		<path class="st0" d="M31.5,197.7l-3.7-5.4h-0.2h-3.9v5.4h-4.5v-19.3h8.3c5.1,0,8.4,2.7,8.4,7c0,2.9-1.5,5-4,6.1l4.3,6.2H31.5z
			 M27.3,182.1h-3.6v6.7h3.6c2.7,0,4.1-1.3,4.1-3.4C31.4,183.3,30.1,182.1,27.3,182.1z"/>
		<path class="st0" d="M54.5,194.2v3.6h-15v-19.3h14.6v3.6H44v4.2h8.9v3.5H44v4.5h10.5V194.2z"/>
		<path class="st0" d="M55.3,195.3l2.5-3c1,1.4,2.2,2.1,3.6,2.1c1.8,0,2.7-1.1,2.7-3.2V182h-6.8v-3.6h11.2V191
			c0,4.8-2.4,7.1-6.9,7.1C59,198.1,56.7,197.1,55.3,195.3z"/>
		<path class="st0" d="M71.8,188.1c0-5.7,4.5-10,10.5-10c6.1,0,10.5,4.2,10.5,10s-4.5,10-10.5,10S71.8,193.8,71.8,188.1z
			 M88.4,188.1c0-3.7-2.6-6.2-6-6.2s-6,2.5-6,6.2s2.6,6.2,6,6.2S88.4,191.8,88.4,188.1z"/>
		<path class="st0" d="M120.9,185.5c0,4.3-3.2,7-8.4,7h-3.9v5.3h-4.4v-19.3h8.3C117.6,178.5,120.9,181.1,120.9,185.5z M116.3,185.5
			c0-2.1-1.4-3.4-4.1-3.4h-3.6v6.7h3.6C115,188.8,116.3,187.6,116.3,185.5z"/>
		<path class="st0" d="M135.8,193.6h-8.9l-1.7,4.1h-4.6l8.6-19.3h4.4l8.6,19.3h-4.7L135.8,193.6z M134.4,190.2l-3.1-7.4l-3.1,7.4
			H134.4z"/>
		<path class="st0" d="M144.3,178.5h8.8c6.3,0,10.6,3.8,10.6,9.6s-4.3,9.6-10.6,9.6h-8.8V178.5z M152.8,194.1c3.8,0,6.3-2.3,6.3-6
			s-2.5-6-6.3-6h-4.1V194h4.1V194.1z"/>
		<path class="st0" d="M167.1,178.5h4.5v19.3h-4.5V178.5z"/>
		<path class="st0" d="M176.1,178.5h4.5v15.6h9.7v3.6h-14.1L176.1,178.5L176.1,178.5z"/>
		<path class="st0" d="M192.8,178.5h4.5v15.6h9.7v3.6h-14.1L192.8,178.5L192.8,178.5z"/>
		<path class="st0" d="M222.4,193.6h-8.9l-1.7,4.1h-4.6l8.6-19.3h4.4l8.6,19.3h-4.7L222.4,193.6z M221,190.2l-3.1-7.4l-3.1,7.4H221z
			"/>
		<path class="st1" d="M61,216.7h-6.5l-1.4,3.1h-1.3l5.3-11.7h1.2l5.3,11.7h-1.3L61,216.7z M60.6,215.7l-2.8-6.3l-2.8,6.3H60.6z"/>
		<path class="st1" d="M78.7,216.7c0,2-1.5,3.1-4.4,3.1h-5.4v-11.7h5c2.6,0,4.1,1.1,4.1,3c0,1.3-0.7,2.2-1.8,2.7
			C77.8,214.2,78.7,215.1,78.7,216.7z M70.2,209.2v4.2h3.7c1.9,0,3-0.7,3-2.1c0-1.4-1.1-2.1-3-2.1L70.2,209.2L70.2,209.2z
			 M77.5,216.6c0-1.5-1.1-2.2-3.2-2.2h-4.1v4.4h4.1C76.4,218.8,77.5,218.2,77.5,216.6z"/>
		<path class="st1" d="M83.9,214c0-3.4,2.6-5.9,6.1-5.9s6.1,2.5,6.1,5.9s-2.6,5.9-6.1,5.9C86.5,219.9,83.9,217.4,83.9,214z
			 M94.9,214c0-2.8-2.1-4.8-4.9-4.8s-4.9,2.1-4.9,4.8c0,2.8,2.1,4.8,4.9,4.8S94.9,216.8,94.9,214z"/>
		<path class="st1" d="M110.5,214h1.2v4.5c-1.1,1-2.7,1.5-4.3,1.5c-3.6,0-6.2-2.5-6.2-5.9s2.6-5.9,6.2-5.9c1.8,0,3.3,0.6,4.3,1.7
			l-0.8,0.8c-1-1-2.2-1.4-3.5-1.4c-2.9,0-5,2.1-5,4.8c0,2.8,2.1,4.8,5,4.8c1.1,0,2.2-0.2,3.1-0.9C110.5,218,110.5,214,110.5,214z"/>
		<path class="st1" d="M125.8,216.7h-6.5l-1.4,3.1h-1.3l5.3-11.7h1.2l5.3,11.7h-1.2L125.8,216.7z M125.3,215.7l-2.8-6.3l-2.8,6.3
			H125.3z"/>
		<path class="st1" d="M133.8,208.2h4.8c3.7,0,6.3,2.4,6.3,5.8s-2.5,5.8-6.3,5.8h-4.8V208.2z M138.5,218.8c3.1,0,5.1-2,5.1-4.8
			s-2-4.8-5.1-4.8H135v9.5h3.5V218.8z"/>
		<path class="st1" d="M149.9,214c0-3.4,2.6-5.9,6.1-5.9s6.1,2.5,6.1,5.9s-2.6,5.9-6.1,5.9S149.9,217.4,149.9,214z M160.9,214
			c0-2.8-2.1-4.8-4.9-4.8c-2.8,0-4.9,2.1-4.9,4.8c0,2.8,2.1,4.8,4.9,4.8C158.8,218.8,160.9,216.8,160.9,214z"/>
		<path class="st1" d="M167.1,218.4l0.5-1c0.8,0.8,2.3,1.4,3.9,1.4c2.2,0,3.1-0.9,3.1-2.1c0-3.2-7.2-1.2-7.2-5.6
			c0-1.7,1.3-3.2,4.3-3.2c1.3,0,2.7,0.4,3.6,1l-0.4,1c-1-0.7-2.2-1-3.2-1c-2.1,0-3.1,1-3.1,2.1c0,3.2,7.2,1.3,7.2,5.5
			c0,1.7-1.4,3.2-4.4,3.2C169.7,219.9,168,219.3,167.1,218.4z"/>
	</g>
	<g>
		<path class="st1" d="M144.4,16.5c-12.4-0.1-24.8,0-37.2,0l0,0c-16.3,0-22.6-1.3-26-16.5C79.6,0,77,0,77,0v31.5h8
			c1.6,0,3.2,0,4.7,0h17.5l0,0c12.3,0,24.5,0,36.8,0.2c14.9,0.3,24.7,16,18.8,29.8c-3.5,8.3-10.1,13.1-19,13.1c-2.6,0-5.3,0-8,0
			c0,5.2,0,10.1,0,15.3c2.4,0,4.5,0,6.7,0c20.1,0,35.8-14.8,37-34.8C180.7,35.3,165.1,16.6,144.4,16.5z"/>
		<rect x="77.1" y="74.5" class="st1" width="15.3" height="42.2"/>
		<path class="st0" d="M106.4,60.7c0,0,0,25.1,0,49.6c-0.6,16.4-5,23.1-21.7,26.9c0,1.9,0,4.8,0,4.8h22h14.8h21.8c0,0,0-2.9,0-4.8
			c-16.7-3.8-21.7-10.4-21.7-26.9c0-1.4,0-49.6,0-49.6h29.3V45.4h-74v15.4h29.5V60.7z"/>
	</g>
</g>
</svg>
