<?xml version="1.0" encoding="utf-8"?>
<!-- Generator: Adobe Illustrator 28.0.0, SVG Export Plug-In . SVG Version: 6.00 Build 0)  -->
<svg version="1.1" id="Capa_2_00000147930167675776111880000014565684205440253101_"
	 xmlns="http://www.w3.org/2000/svg" xmlns:xlink="http://www.w3.org/1999/xlink" x="0px" y="0px" viewBox="0 0 242.4 219.9"
	 style="enable-background:new 0 0 242.4 219.9;" xml:space="preserve">
<style type="text/css">
	.st0{fill:#FFFFFF;}
	.st1{fill:#E26C2E;}
</style>
<g>
	<g>
		<path class="st0" d="M13,182.1H6.8v-3.6h16.8v3.6h-6.2v15.6H13V182.1z"/>
		<path class="st0" d="M38.3,197.7l-3.7-5.4h-0.2h-3.9v5.4H26v-19.3h8.3c5.1,0,8.4,2.7,8.4,7c0,2.9-1.5,5-4,6.1l4.3,6.2H38.3z
			 M34.1,182.1h-3.6v6.7h3.6c2.7,0,4.1-1.3,4.1-3.4C38.2,183.3,36.9,182.1,34.1,182.1z"/>
		<path class="st0" d="M61.3,194.2v3.6H46.3v-19.3h14.6v3.6H50.8v4.2h8.9v3.5h-8.9v4.5H61.3z"/>
		<path class="st0" d="M62.1,195.3l2.5-3c1,1.4,2.2,2.1,3.6,2.1c1.8,0,2.7-1.1,2.7-3.2V182h-6.8v-3.6h11.2V191
			c0,4.8-2.4,7.1-6.9,7.1C65.8,198.1,63.5,197.1,62.1,195.3z"/>
		<path class="st0" d="M78.6,188.1c0-5.7,4.5-10,10.5-10c6.1,0,10.5,4.2,10.5,10c0,5.8-4.5,10-10.5,10
			C83.1,198.1,78.6,193.8,78.6,188.1z M95.2,188.1c0-3.7-2.6-6.2-6-6.2c-3.4,0-6,2.5-6,6.2c0,3.7,2.6,6.2,6,6.2
			C92.6,194.3,95.2,191.8,95.2,188.1z"/>
		<path class="st0" d="M127.7,185.5c0,4.3-3.2,7-8.4,7h-3.9v5.3H111v-19.3h8.3C124.4,178.5,127.7,181.1,127.7,185.5z M123.1,185.5
			c0-2.1-1.4-3.4-4.1-3.4h-3.6v6.7h3.6C121.8,188.8,123.1,187.6,123.1,185.5z"/>
		<path class="st0" d="M142.6,193.6h-8.9l-1.7,4.1h-4.6l8.6-19.3h4.4l8.6,19.3h-4.7L142.6,193.6z M141.2,190.2l-3.1-7.4l-3.1,7.4
			H141.2z"/>
		<path class="st0" d="M151.1,178.5h8.8c6.3,0,10.6,3.8,10.6,9.6c0,5.8-4.3,9.6-10.6,9.6h-8.8V178.5z M159.6,194.1
			c3.8,0,6.3-2.3,6.3-6c0-3.7-2.5-6-6.3-6h-4.1v11.9H159.6z"/>
		<path class="st0" d="M173.9,178.5h4.5v19.3h-4.5V178.5z"/>
		<path class="st0" d="M182.9,178.5h4.5v15.6h9.7v3.6h-14.1V178.5z"/>
		<path class="st0" d="M199.6,178.5h4.5v15.6h9.7v3.6h-14.1V178.5z"/>
		<path class="st0" d="M229.2,193.6h-8.9l-1.7,4.1h-4.6l8.6-19.3h4.4l8.6,19.3h-4.7L229.2,193.6z M227.8,190.2l-3.1-7.4l-3.1,7.4
			H227.8z"/>
		<path class="st1" d="M67.8,216.7h-6.5l-1.4,3.1h-1.3l5.3-11.7h1.2l5.3,11.7h-1.3L67.8,216.7z M67.4,215.7l-2.8-6.3l-2.8,6.3H67.4z
			"/>
		<path class="st1" d="M85.5,216.7c0,2-1.5,3.1-4.4,3.1h-5.4v-11.7h5c2.6,0,4.1,1.1,4.1,3c0,1.3-0.7,2.2-1.8,2.7
			C84.6,214.2,85.5,215.1,85.5,216.7z M77,209.2v4.2h3.7c1.9,0,3-0.7,3-2.1c0-1.4-1.1-2.1-3-2.1H77z M84.3,216.6
			c0-1.5-1.1-2.2-3.2-2.2H77v4.4h4.1C83.2,218.8,84.3,218.2,84.3,216.6z"/>
		<path class="st1" d="M90.7,214c0-3.4,2.6-5.9,6.1-5.9c3.5,0,6.1,2.5,6.1,5.9s-2.6,5.9-6.1,5.9C93.3,219.9,90.7,217.4,90.7,214z
			 M101.7,214c0-2.8-2.1-4.8-4.9-4.8c-2.8,0-4.9,2.1-4.9,4.8c0,2.8,2.1,4.8,4.9,4.8C99.6,218.8,101.7,216.8,101.7,214z"/>
		<path class="st1" d="M117.3,214h1.2v4.5c-1.1,1-2.7,1.5-4.3,1.5c-3.6,0-6.2-2.5-6.2-5.9s2.6-5.9,6.2-5.9c1.8,0,3.3,0.6,4.3,1.7
			l-0.8,0.8c-1-1-2.2-1.4-3.5-1.4c-2.9,0-5,2.1-5,4.8c0,2.8,2.1,4.8,5,4.8c1.1,0,2.2-0.2,3.1-0.9V214z"/>
		<path class="st1" d="M132.6,216.7h-6.5l-1.4,3.1h-1.3l5.3-11.7h1.2l5.3,11.7H134L132.6,216.7z M132.1,215.7l-2.8-6.3l-2.8,6.3
			H132.1z"/>
		<path class="st1" d="M140.6,208.2h4.8c3.7,0,6.3,2.4,6.3,5.8s-2.5,5.8-6.3,5.8h-4.8V208.2z M145.3,218.8c3.1,0,5.1-2,5.1-4.8
			c0-2.8-2-4.8-5.1-4.8h-3.5v9.5H145.3z"/>
		<path class="st1" d="M156.7,214c0-3.4,2.6-5.9,6.1-5.9c3.5,0,6.1,2.5,6.1,5.9s-2.6,5.9-6.1,5.9C159.3,219.9,156.7,217.4,156.7,214
			z M167.7,214c0-2.8-2.1-4.8-4.9-4.8c-2.8,0-4.9,2.1-4.9,4.8c0,2.8,2.1,4.8,4.9,4.8C165.6,218.8,167.7,216.8,167.7,214z"/>
		<path class="st1" d="M173.9,218.4l0.5-1c0.8,0.8,2.3,1.4,3.9,1.4c2.2,0,3.1-0.9,3.1-2.1c0-3.2-7.2-1.2-7.2-5.6
			c0-1.7,1.3-3.2,4.3-3.2c1.3,0,2.7,0.4,3.6,1l-0.4,1c-1-0.7-2.2-1-3.2-1c-2.1,0-3.1,1-3.1,2.1c0,3.2,7.2,1.3,7.2,5.5
			c0,1.7-1.4,3.2-4.4,3.2C176.5,219.9,174.8,219.3,173.9,218.4z"/>
	</g>
	<g>
		<path class="st1" d="M151.2,16.5c-12.4-0.1-24.8,0-37.2,0v0c-16.3,0-22.6-1.3-26-16.5c-1.6,0-4.2,0-4.2,0v31.5h8
			c1.6,0,3.2,0,4.7,0H114l0,0c12.3,0,24.5,0,36.8,0.2c14.9,0.3,24.7,16,18.8,29.8c-3.5,8.3-10.1,13.1-19,13.1c-2.6,0-5.3,0-8,0
			c0,5.2,0,10.1,0,15.3c2.4,0,4.5,0,6.7,0c20.1,0,35.8-14.8,37-34.8C187.5,35.3,171.9,16.6,151.2,16.5z"/>
		<rect x="83.9" y="74.5" class="st1" width="15.3" height="42.2"/>
		<path class="st0" d="M113.2,60.7c0,0,0,25.1,0,49.6c-0.6,16.4-5,23.1-21.7,26.9c0,1.9,0,4.8,0,4.8h22h14.8h21.8c0,0,0-2.9,0-4.8
			c-16.7-3.8-21.7-10.4-21.7-26.9c0-1.4,0-49.6,0-49.6h29.3V45.4l-74,0v15.4H113.2z"/>
	</g>
</g>
</svg>
