<?xml version="1.0" encoding="UTF-8"?><svg id="Capa_2" xmlns="http://www.w3.org/2000/svg" viewBox="0 0 242.36 219.95"><defs><style>.cls-1{fill:#e26c2e;}.cls-1,.cls-2{stroke-width:0px;}.cls-2{fill:#fff;}</style></defs><g id="Textos"><path class="cls-2" d="m6.55,179.73H0v-3.86h17.85v3.86h-6.55v16.62h-4.74v-16.62Z"/><path class="cls-2" d="m33.44,196.35l-3.95-5.7h-4.36v5.7h-4.74v-20.48h8.86c5.47,0,8.89,2.84,8.89,7.43,0,3.07-1.55,5.32-4.21,6.47l4.59,6.58h-5.09Zm-4.45-16.62h-3.86v7.14h3.86c2.9,0,4.36-1.35,4.36-3.57s-1.46-3.57-4.36-3.57Z"/><path class="cls-2" d="m57.75,192.55v3.8h-15.86v-20.48h15.48v3.8h-10.77v4.45h9.51v3.69h-9.51v4.74h11.15Z"/><path class="cls-2" d="m58.62,193.72l2.63-3.16c1.11,1.49,2.34,2.25,3.8,2.25,1.9,0,2.9-1.14,2.9-3.39v-9.74h-7.2v-3.8h11.91v13.28c0,5.06-2.55,7.55-7.37,7.55-2.75,0-5.18-1.05-6.67-2.98Z"/><path class="cls-2" d="m76.06,186.11c0-6.09,4.74-10.59,11.21-10.59s11.21,4.48,11.21,10.59-4.77,10.59-11.21,10.59-11.21-4.51-11.21-10.59Zm17.61,0c0-3.89-2.75-6.55-6.41-6.55s-6.41,2.66-6.41,6.55,2.75,6.55,6.41,6.55,6.41-2.66,6.41-6.55Z"/><path class="cls-2" d="m128.07,183.3c0,4.56-3.42,7.4-8.89,7.4h-4.13v5.65h-4.74v-20.48h8.86c5.47,0,8.89,2.84,8.89,7.43Zm-4.8,0c0-2.25-1.46-3.57-4.36-3.57h-3.86v7.11h3.86c2.9,0,4.36-1.32,4.36-3.54Z"/><path class="cls-2" d="m143.9,191.96h-9.51l-1.81,4.39h-4.86l9.13-20.48h4.68l9.16,20.48h-4.97l-1.81-4.39Zm-1.49-3.6l-3.25-7.84-3.25,7.84h6.49Z"/><path class="cls-2" d="m152.82,175.87h9.3c6.7,0,11.29,4.04,11.29,10.24s-4.59,10.24-11.29,10.24h-9.3v-20.48Zm9.07,16.59c4.07,0,6.73-2.43,6.73-6.35s-2.66-6.35-6.73-6.35h-4.33v12.7h4.33Z"/><path class="cls-2" d="m176.98,175.87h4.74v20.48h-4.74v-20.48Z"/><path class="cls-2" d="m186.57,175.87h4.74v16.62h10.27v3.86h-15.01v-20.48Z"/><path class="cls-2" d="m204.24,175.87h4.74v16.62h10.27v3.86h-15.01v-20.48Z"/><path class="cls-2" d="m235.57,191.96h-9.51l-1.81,4.39h-4.86l9.13-20.48h4.68l9.16,20.48h-4.97l-1.81-4.39Zm-1.49-3.6l-3.25-7.84-3.25,7.84h6.49Z"/><path class="cls-1" d="m64.47,216.53h-6.91l-1.49,3.31h-1.36l5.67-12.4h1.29l5.67,12.4h-1.38l-1.49-3.31Zm-.48-1.06l-2.98-6.66-2.98,6.66h5.95Z"/><path class="cls-1" d="m83.31,216.53c0,2.11-1.56,3.31-4.66,3.31h-5.7v-12.4h5.35c2.76,0,4.36,1.17,4.36,3.19,0,1.42-.76,2.36-1.9,2.82,1.59.35,2.55,1.4,2.55,3.08Zm-9.05-8.01v4.5h3.95c1.98,0,3.14-.76,3.14-2.25s-1.15-2.25-3.14-2.25h-3.95Zm7.74,7.9c0-1.61-1.19-2.32-3.37-2.32h-4.38v4.66h4.38c2.18,0,3.37-.71,3.37-2.34Z"/><path class="cls-1" d="m88.76,213.64c0-3.61,2.76-6.31,6.52-6.31s6.5,2.68,6.5,6.31-2.78,6.31-6.5,6.31-6.52-2.69-6.52-6.31Zm11.71,0c0-2.96-2.21-5.14-5.19-5.14s-5.23,2.18-5.23,5.14,2.23,5.14,5.23,5.14,5.19-2.18,5.19-5.14Z"/><path class="cls-1" d="m117.01,213.64h1.26v4.73c-1.17,1.05-2.83,1.58-4.55,1.58-3.77,0-6.54-2.67-6.54-6.31s2.76-6.31,6.55-6.31c1.88,0,3.51.6,4.61,1.79l-.82.83c-1.05-1.03-2.29-1.45-3.74-1.45-3.07,0-5.32,2.18-5.32,5.14s2.25,5.14,5.3,5.14c1.19,0,2.29-.27,3.24-.96v-4.18Z"/><path class="cls-1" d="m133.31,216.53h-6.91l-1.49,3.31h-1.36l5.67-12.4h1.29l5.67,12.4h-1.38l-1.49-3.31Zm-.48-1.06l-2.98-6.66-2.98,6.66h5.95Z"/><path class="cls-1" d="m141.79,207.44h5.05c3.97,0,6.64,2.55,6.64,6.2s-2.67,6.2-6.64,6.2h-5.05v-12.4Zm4.98,11.27c3.3,0,5.42-2.09,5.42-5.07s-2.13-5.07-5.42-5.07h-3.67v10.13h3.67Z"/><path class="cls-1" d="m158.88,213.64c0-3.61,2.76-6.31,6.52-6.31s6.5,2.68,6.5,6.31-2.78,6.31-6.5,6.31-6.52-2.69-6.52-6.31Zm11.71,0c0-2.96-2.21-5.14-5.19-5.14s-5.23,2.18-5.23,5.14,2.23,5.14,5.23,5.14,5.19-2.18,5.19-5.14Z"/><path class="cls-1" d="m177.21,218.34l.51-1.01c.89.87,2.46,1.51,4.09,1.51,2.32,0,3.33-.97,3.33-2.2,0-3.4-7.64-1.31-7.64-5.9,0-1.82,1.42-3.4,4.57-3.4,1.4,0,2.85.41,3.84,1.1l-.44,1.05c-1.06-.69-2.3-1.03-3.4-1.03-2.27,0-3.28,1.01-3.28,2.25,0,3.4,7.64,1.35,7.64,5.86,0,1.82-1.45,3.38-4.62,3.38-1.86,0-3.69-.66-4.61-1.61Z"/><path class="cls-1" d="m145.59,17.51c-13.17-.09-26.33.03-39.5,0h0c-17.32,0-23.97-1.43-27.61-17.51h-4.28v33.47h8.28c1.68,0,3.36,0,5.04,0h18.53v-.02c13.02-.01,26.04,0,39.05.22,15.84.27,26.24,17.02,20.02,31.62-3.77,8.85-10.81,13.23-20.24,13.9-2.79.2-5.61.03-8.52.03v16.26c2.56,0,4.83,0,7.09,0,21.36-.02,38.09-15.68,39.37-36.96,1.26-20.98-15.29-40.86-37.23-41.01Z"/><path class="cls-1" d="m89.71,124.55v-3.03s0-.07,0-.11c0-.02,0-.05,0-.07v-41.68h-15.71v2.38h0v42.5h15.71Z"/><path class="cls-2" d="m121.18,64.77h30.2v-15.87l-77.19-.04v15.91h31.01v52.43c-.67,17.45-6.04,24.54-23.74,28.55v5.07h63.58v-5.07c-17.7-4.01-23.07-11.09-23.74-28.55-.05-1.33-.13-52.44-.13-52.44Z"/></g></svg>